<svg width="14" height="13" viewBox="0 0 14 13" fill="none" xmlns="http://www.w3.org/2000/svg">
<path d="M6.16175 1.55922C6.47187 0.813593 7.52813 0.813594 7.83825 1.55922L8.82819 3.93931C8.95893 4.25365 9.25454 4.46842 9.59389 4.49562L12.1634 4.70162C12.9684 4.76615 13.2948 5.77072 12.6815 6.29607L10.7238 7.97305C10.4652 8.19452 10.3523 8.54203 10.4313 8.87318L11.0294 11.3806C11.2168 12.1661 10.3622 12.7869 9.67309 12.366L7.47323 11.0223C7.1827 10.8449 6.8173 10.8449 6.52677 11.0223L4.32691 12.366C3.63775 12.7869 2.78322 12.1661 2.97059 11.3806L3.5687 8.87318C3.64769 8.54203 3.53478 8.19452 3.27623 7.97304L1.31853 6.29607C0.705234 5.77072 1.03164 4.76615 1.8366 4.70162L4.40611 4.49562C4.74546 4.46842 5.04107 4.25364 5.17181 3.93931L6.16175 1.55922Z" stroke="#363233" stroke-width="0.5"/>
</svg>
