<svg width="12" height="12" viewBox="0 0 12 12" fill="none" xmlns="http://www.w3.org/2000/svg">
<path d="M11 9.61711V6V2.38289C11.5656 2.28691 12 1.79187 12 1.2C12 0.54 11.46 0 10.8 0C10.14 0 9.6 0.54 9.6 1.2C9.6 1.79187 10.0344 2.28691 10.6 2.38289V5.80001H7.8V2.38289C8.36564 2.28691 8.80001 1.79187 8.80001 1.2C8.80001 0.54 8.26001 0 7.60001 0C6.94001 0 6.40001 0.54 6.40001 1.2C6.40001 1.79187 6.83438 2.28691 7.40002 2.38289V5.80001H4.60001V2.38289C5.16565 2.28691 5.60002 1.79187 5.60002 1.2C5.60002 0.54 5.06002 0 4.40002 0C3.74002 0 3.20002 0.54 3.20002 1.2C3.20002 1.79187 3.63438 2.28691 4.20002 2.38289V5.80001H1.39999V2.38289C1.96563 2.28691 2.4 1.79187 2.4 1.2C2.4 0.54 1.86 0 1.2 0C0.54 0 0 0.54 0 1.2C0 1.79187 0.434367 2.28691 1.00001 2.38289V6C1.00001 6.12 1.08 6.19999 1.2 6.19999H4.2V9.61711C3.63436 9.71309 3.19999 10.2081 3.19999 10.8C3.19999 11.46 3.73999 12 4.39999 12C5.05999 12 5.59999 11.46 5.59999 10.8C5.59999 10.2081 5.16563 9.71309 4.59998 9.61711V6.19999H7.39999V9.61711C6.83435 9.71309 6.39998 10.2081 6.39998 10.8C6.39998 11.46 6.93998 12 7.59998 12C8.25998 12 8.79998 11.46 8.79998 10.8C8.79998 10.2081 8.36562 9.71309 7.79998 9.61711V6.19999H10.6V9.61711C10.0343 9.71309 9.59998 10.2081 9.59998 10.8C9.59998 11.46 10.14 12 10.8 12C11.46 12 12 11.46 12 10.8C12 10.2081 11.5656 9.71309 11 9.61711ZM10 1.2C10 0.760008 10.36 0.400008 10.8 0.400008C11.24 0.400008 11.6 0.760008 11.6 1.2C11.6 1.63999 11.24 1.99999 10.8 1.99999C10.36 1.99999 10 1.63999 10 1.2ZM6.79999 1.2C6.79999 0.760008 7.15999 0.400008 7.59998 0.400008C8.03998 0.400008 8.39998 0.760008 8.39998 1.2C8.39998 1.63999 8.03998 1.99999 7.59998 1.99999C7.15999 1.99999 6.79999 1.63999 6.79999 1.2ZM3.6 1.2C3.6 0.760008 3.96 0.400008 4.39999 0.400008C4.83998 0.400008 5.19998 0.760008 5.19998 1.2C5.19998 1.63999 4.83998 1.99999 4.39999 1.99999C3.96 1.99999 3.6 1.63999 3.6 1.2ZM0.400008 1.2C0.400008 0.760008 0.760008 0.400008 1.2 0.400008C1.63999 0.400008 1.99999 0.760008 1.99999 1.2C1.99999 1.63999 1.63999 1.99999 1.2 1.99999C0.760008 1.99999 0.400008 1.63999 0.400008 1.2ZM5.20001 10.8C5.20001 11.24 4.84001 11.6 4.40002 11.6C3.96002 11.6 3.60002 11.24 3.60002 10.8C3.60002 10.36 3.96002 10 4.40002 10C4.84001 10 5.20001 10.36 5.20001 10.8ZM8.4 10.8C8.4 11.24 8.04 11.6 7.60001 11.6C7.16002 11.6 6.80002 11.24 6.80002 10.8C6.80002 10.36 7.16002 10 7.60001 10C8.04 10 8.4 10.36 8.4 10.8ZM10.8 11.6C10.36 11.6 10 11.24 10 10.8C10 10.36 10.36 10 10.8 10C11.24 10 11.6 10.36 11.6 10.8C11.6 11.24 11.24 11.6 10.8 11.6Z" fill="#363233"/>
</svg>
