<svg width="12" height="12" viewBox="0 0 12 12" fill="none" xmlns="http://www.w3.org/2000/svg">
<path d="M11.4087 1.32078H9.306V0.591309C9.306 0.547797 9.28871 0.506067 9.25794 0.475299C9.22718 0.444531 9.18545 0.427246 9.14194 0.427246H8.44237C8.42082 0.427234 8.39948 0.431469 8.37957 0.43971C8.35966 0.44795 8.34157 0.460034 8.32634 0.475271C8.3111 0.490508 8.29901 0.508599 8.29077 0.52851C8.28253 0.548421 8.2783 0.56976 8.27831 0.591309V1.32078H6.51384V0.591309C6.51385 0.56976 6.50962 0.548421 6.50138 0.52851C6.49314 0.508599 6.48105 0.490508 6.46582 0.475271C6.45058 0.460034 6.43249 0.44795 6.41258 0.43971C6.39267 0.431469 6.37133 0.427234 6.34978 0.427246H5.65022C5.62867 0.427234 5.60733 0.431469 5.58742 0.43971C5.56751 0.44795 5.54942 0.460034 5.53418 0.475271C5.51894 0.490508 5.50686 0.508599 5.49862 0.52851C5.49038 0.548421 5.48614 0.56976 5.48615 0.591309V1.32078H3.72187V0.591309C3.72188 0.56976 3.71765 0.548421 3.70941 0.52851C3.70117 0.508599 3.68908 0.490508 3.67385 0.475271C3.65861 0.460034 3.64052 0.44795 3.62061 0.43971C3.6007 0.431469 3.57936 0.427234 3.55781 0.427246H2.85806C2.81455 0.427246 2.77282 0.444531 2.74205 0.475299C2.71128 0.506067 2.694 0.547797 2.694 0.591309V1.32078H0.591278C0.56973 1.32076 0.54839 1.325 0.52848 1.33324C0.508569 1.34148 0.490478 1.35357 0.475241 1.3688C0.460004 1.38404 0.44792 1.40213 0.439679 1.42204C0.431438 1.44195 0.427203 1.46329 0.427216 1.48484V11.4087C0.427203 11.4303 0.431438 11.4516 0.439679 11.4715C0.44792 11.4915 0.460004 11.5095 0.475241 11.5248C0.490478 11.54 0.508569 11.5521 0.52848 11.5603C0.54839 11.5686 0.56973 11.5728 0.591278 11.5728H11.4087C11.4303 11.5728 11.4516 11.5686 11.4715 11.5603C11.4914 11.5521 11.5095 11.54 11.5248 11.5248C11.54 11.5095 11.5521 11.4915 11.5603 11.4715C11.5686 11.4516 11.5728 11.4303 11.5728 11.4087V1.48484C11.5728 1.46329 11.5686 1.44195 11.5603 1.42204C11.5521 1.40213 11.54 1.38404 11.5248 1.3688C11.5095 1.35357 11.4914 1.34148 11.4715 1.33324C11.4516 1.325 11.4303 1.32076 11.4087 1.32078ZM8.60625 0.755371H8.97768V2.21431H8.60625V0.755371ZM5.81409 0.755371H6.18553V2.21431H5.81428L5.81409 0.755371ZM3.02193 0.755371H3.39375V2.21431H3.02212L3.02193 0.755371ZM0.755341 1.6489H2.694V2.37837C2.694 2.42188 2.71128 2.46361 2.74205 2.49438C2.77282 2.52515 2.81455 2.54243 2.85806 2.54243H3.55762C3.57917 2.54245 3.60051 2.53821 3.62042 2.52997C3.64033 2.52173 3.65842 2.50965 3.67366 2.49441C3.6889 2.47917 3.70098 2.46108 3.70922 2.44117C3.71746 2.42126 3.7217 2.39992 3.72168 2.37837V1.6489H5.48615V2.37837C5.48614 2.39992 5.49038 2.42126 5.49862 2.44117C5.50686 2.46108 5.51894 2.47917 5.53418 2.49441C5.54942 2.50965 5.56751 2.52173 5.58742 2.52997C5.60733 2.53821 5.62867 2.54245 5.65022 2.54243H6.34978C6.37133 2.54245 6.39267 2.53821 6.41258 2.52997C6.43249 2.52173 6.45058 2.50965 6.46582 2.49441C6.48105 2.47917 6.49314 2.46108 6.50138 2.44117C6.50962 2.42126 6.51385 2.39992 6.51384 2.37837V1.6489H8.27812V2.37837C8.27811 2.39992 8.28235 2.42126 8.29059 2.44117C8.29883 2.46108 8.31091 2.47917 8.32615 2.49441C8.34138 2.50965 8.35948 2.52173 8.37939 2.52997C8.3993 2.53821 8.42064 2.54245 8.44219 2.54243H9.14175C9.18526 2.54243 9.22699 2.52515 9.25776 2.49438C9.28852 2.46361 9.30581 2.42188 9.30581 2.37837V1.6489H11.2445V3.52625H0.755341V1.6489ZM0.755341 11.2447V3.85437H11.2447V11.2447H0.755341Z" fill="#363233"/>
<path d="M2.59312 4.59521C2.44417 4.59521 2.29857 4.63938 2.17472 4.72213C2.05088 4.80488 1.95435 4.9225 1.89735 5.06011C1.84035 5.19772 1.82544 5.34914 1.8545 5.49523C1.88356 5.64131 1.95528 5.7755 2.0606 5.88082C2.16593 5.98614 2.30011 6.05787 2.4462 6.08693C2.59229 6.11598 2.74371 6.10107 2.88132 6.04407C3.01893 5.98707 3.13655 5.89055 3.2193 5.7667C3.30205 5.64286 3.34622 5.49725 3.34622 5.34831C3.34602 5.14863 3.26661 4.9572 3.12542 4.81601C2.98423 4.67482 2.79279 4.59541 2.59312 4.59521ZM2.59312 5.77327C2.50907 5.77327 2.42691 5.74835 2.35702 5.70165C2.28714 5.65496 2.23267 5.58859 2.2005 5.51093C2.16834 5.43328 2.15992 5.34783 2.17632 5.2654C2.19272 5.18296 2.23319 5.10724 2.29262 5.04781C2.35206 4.98838 2.42778 4.9479 2.51021 4.9315C2.59265 4.91511 2.6781 4.92352 2.75575 4.95569C2.8334 4.98785 2.89977 5.04232 2.94647 5.11221C2.99317 5.18209 3.01809 5.26425 3.01809 5.34831C3.01799 5.46098 2.97319 5.56902 2.89351 5.64869C2.81383 5.72837 2.7058 5.77317 2.59312 5.77327Z" fill="#363233"/>
<path d="M4.86439 4.59521C4.71544 4.59521 4.56984 4.63938 4.446 4.72213C4.32215 4.80488 4.22562 4.9225 4.16862 5.06011C4.11162 5.19772 4.09671 5.34914 4.12577 5.49523C4.15483 5.64131 4.22655 5.7755 4.33187 5.88082C4.4372 5.98614 4.57138 6.05787 4.71747 6.08693C4.86356 6.11598 5.01498 6.10107 5.15259 6.04407C5.2902 5.98707 5.40782 5.89055 5.49057 5.7667C5.57332 5.64286 5.61749 5.49725 5.61749 5.34831C5.61726 5.14864 5.53785 4.95722 5.39666 4.81604C5.25548 4.67485 5.06406 4.59544 4.86439 4.59521ZM4.86439 5.77327C4.78034 5.77327 4.69818 5.74835 4.62829 5.70165C4.55841 5.65496 4.50394 5.58859 4.47177 5.51093C4.43961 5.43328 4.43119 5.34783 4.44759 5.2654C4.46399 5.18296 4.50446 5.10724 4.56389 5.04781C4.62333 4.98838 4.69905 4.9479 4.78148 4.9315C4.86392 4.91511 4.94937 4.92352 5.02702 4.95569C5.10467 4.98785 5.17104 5.04232 5.21774 5.11221C5.26444 5.18209 5.28936 5.26425 5.28936 5.34831C5.28924 5.46098 5.24442 5.569 5.16475 5.64867C5.08508 5.72834 4.97706 5.77315 4.86439 5.77327Z" fill="#363233"/>
<path d="M7.13558 4.59521C6.98664 4.59521 6.84103 4.63938 6.71719 4.72213C6.59334 4.80488 6.49682 4.9225 6.43982 5.06011C6.38282 5.19772 6.3679 5.34914 6.39696 5.49523C6.42602 5.64131 6.49775 5.7755 6.60307 5.88082C6.70839 5.98614 6.84258 6.05787 6.98866 6.08693C7.13475 6.11598 7.28617 6.10107 7.42378 6.04407C7.56139 5.98707 7.67901 5.89055 7.76176 5.7667C7.84451 5.64286 7.88868 5.49725 7.88868 5.34831C7.88845 5.14864 7.80904 4.95722 7.66786 4.81604C7.52667 4.67485 7.33525 4.59544 7.13558 4.59521ZM7.13558 5.77327C7.05153 5.77327 6.96937 5.74835 6.89948 5.70165C6.8296 5.65496 6.77513 5.58859 6.74297 5.51093C6.7108 5.43328 6.70238 5.34783 6.71878 5.2654C6.73518 5.18296 6.77565 5.10724 6.83509 5.04781C6.89452 4.98838 6.97024 4.9479 7.05268 4.9315C7.13511 4.91511 7.22056 4.92352 7.29821 4.95569C7.37587 4.98785 7.44224 5.04232 7.48893 5.11221C7.53563 5.18209 7.56055 5.26425 7.56055 5.34831C7.56045 5.46098 7.51565 5.56902 7.43597 5.64869C7.3563 5.72837 7.24826 5.77317 7.13558 5.77327Z" fill="#363233"/>
<path d="M9.40687 4.59521C9.25792 4.5952 9.11231 4.63935 8.98845 4.72209C8.86459 4.80483 8.76805 4.92244 8.71104 5.06005C8.65403 5.19766 8.6391 5.34908 8.66815 5.49517C8.69719 5.64127 8.76891 5.77546 8.87423 5.8808C8.97955 5.98613 9.11374 6.05786 9.25982 6.08693C9.40591 6.11599 9.55734 6.10109 9.69495 6.04409C9.83257 5.98709 9.95019 5.89057 10.0329 5.76672C10.1157 5.64287 10.1599 5.49726 10.1599 5.34831C10.1597 5.14865 10.0803 4.95723 9.93911 4.81604C9.79794 4.67486 9.60653 4.59544 9.40687 4.59521ZM9.40687 5.77328C9.32282 5.7733 9.24065 5.74839 9.17075 5.70171C9.10085 5.65502 9.04637 5.58866 9.01419 5.511C8.98201 5.43335 8.97358 5.3479 8.98997 5.26546C9.00635 5.18302 9.04682 5.10729 9.10625 5.04784C9.16568 4.9884 9.2414 4.94792 9.32384 4.93151C9.40628 4.91511 9.49173 4.92352 9.56939 4.95568C9.64704 4.98784 9.71342 5.04231 9.76012 5.1122C9.80682 5.18209 9.83175 5.26426 9.83175 5.34831C9.83165 5.46097 9.78686 5.56899 9.7072 5.64867C9.62755 5.72834 9.51953 5.77316 9.40687 5.77328Z" fill="#363233"/>
<path d="M2.59313 6.79688C2.44415 6.79686 2.29852 6.84102 2.17464 6.92377C2.05077 7.00652 1.95421 7.12415 1.8972 7.26179C1.84018 7.39942 1.82525 7.55086 1.85431 7.69698C1.88337 7.84309 1.95511 7.9773 2.06045 8.08264C2.16579 8.18798 2.3 8.25972 2.44612 8.28878C2.59223 8.31784 2.74368 8.30291 2.88131 8.24589C3.01894 8.18887 3.13657 8.09232 3.21932 7.96845C3.30208 7.84457 3.34624 7.69894 3.34622 7.54997C3.346 7.3503 3.26658 7.15888 3.1254 7.0177C2.98421 6.87651 2.79279 6.7971 2.59313 6.79688ZM2.59313 7.97503C2.50905 7.97505 2.42686 7.95013 2.35695 7.90344C2.28703 7.85674 2.23254 7.79036 2.20035 7.71269C2.16817 7.63503 2.15973 7.54956 2.17613 7.4671C2.19252 7.38464 2.23299 7.30889 2.29243 7.24944C2.35188 7.18998 2.42762 7.14949 2.51007 7.13308C2.59253 7.11667 2.678 7.12508 2.75567 7.15725C2.83335 7.18942 2.89974 7.2439 2.94645 7.3138C2.99316 7.38371 3.01809 7.46589 3.01809 7.54997C3.01787 7.66257 2.97301 7.77049 2.89335 7.85008C2.8137 7.92967 2.70573 7.97443 2.59313 7.97456V7.97503Z" fill="#363233"/>
<path d="M4.8644 6.79688C4.71542 6.79686 4.56979 6.84102 4.44591 6.92377C4.32204 7.00652 4.22548 7.12415 4.16847 7.26179C4.11145 7.39942 4.09652 7.55086 4.12558 7.69698C4.15464 7.84309 4.22638 7.9773 4.33172 8.08264C4.43706 8.18798 4.57127 8.25972 4.71739 8.28878C4.8635 8.31784 5.01495 8.30291 5.15258 8.24589C5.29021 8.18887 5.40784 8.09232 5.4906 7.96845C5.57335 7.84457 5.61751 7.69894 5.61749 7.54997C5.61724 7.35031 5.53782 7.1589 5.39664 7.01772C5.25546 6.87655 5.06405 6.79712 4.8644 6.79688ZM4.8644 7.97503C4.78032 7.97505 4.69813 7.95013 4.62822 7.90344C4.55831 7.85674 4.50381 7.79036 4.47162 7.71269C4.43944 7.63503 4.43101 7.54956 4.4474 7.4671C4.46379 7.38464 4.50426 7.30889 4.56371 7.24944C4.62315 7.18998 4.69889 7.14949 4.78134 7.13308C4.8638 7.11667 4.94927 7.12508 5.02695 7.15725C5.10462 7.18942 5.17101 7.2439 5.21772 7.3138C5.26444 7.38371 5.28937 7.46589 5.28937 7.54997C5.28912 7.66256 5.24425 7.77047 5.1646 7.85006C5.08495 7.92964 4.977 7.97441 4.8644 7.97456V7.97503Z" fill="#363233"/>
<path d="M7.13559 6.79688C6.98661 6.79686 6.84098 6.84102 6.71711 6.92377C6.59323 7.00652 6.49668 7.12415 6.43966 7.26179C6.38264 7.39942 6.36772 7.55086 6.39678 7.69698C6.42584 7.84309 6.49757 7.9773 6.60291 8.08264C6.70825 8.18798 6.84247 8.25972 6.98858 8.28878C7.13469 8.31784 7.28614 8.30291 7.42377 8.24589C7.5614 8.18887 7.67903 8.09232 7.76179 7.96845C7.84454 7.84457 7.8887 7.69894 7.88868 7.54997C7.88843 7.35031 7.80901 7.1589 7.66783 7.01772C7.52665 6.87655 7.33525 6.79712 7.13559 6.79688ZM7.13559 7.97503C7.05152 7.97505 6.96933 7.95013 6.89941 7.90344C6.8295 7.85674 6.775 7.79036 6.74282 7.71269C6.71063 7.63503 6.7022 7.54956 6.71859 7.4671C6.73498 7.38464 6.77546 7.30889 6.8349 7.24944C6.89434 7.18998 6.97008 7.14949 7.05253 7.13308C7.13499 7.11667 7.22046 7.12508 7.29814 7.15725C7.37581 7.18942 7.4422 7.2439 7.48891 7.3138C7.53562 7.38371 7.56056 7.46589 7.56056 7.54997C7.56033 7.66257 7.51548 7.77049 7.43582 7.85008C7.35616 7.92967 7.24819 7.97443 7.13559 7.97456V7.97503Z" fill="#363233"/>
<path d="M9.40686 6.79688C9.25788 6.79684 9.11224 6.84098 8.98835 6.92373C8.86447 7.00647 8.7679 7.12409 8.71087 7.26172C8.65383 7.39935 8.6389 7.5508 8.66794 7.69692C8.69699 7.84304 8.76872 7.97726 8.87406 8.08261C8.9794 8.18796 9.11361 8.2597 9.25972 8.28877C9.40584 8.31784 9.55729 8.30292 9.69493 8.2459C9.83256 8.18889 9.9502 8.09233 10.033 7.96846C10.1157 7.84458 10.1599 7.69894 10.1599 7.54997C10.1596 7.35032 10.0802 7.15891 9.93907 7.01773C9.79791 6.87655 9.60651 6.79712 9.40686 6.79688ZM9.40686 7.97503C9.32278 7.97506 9.24058 7.95017 9.17066 7.90348C9.10073 7.8568 9.04622 7.79043 9.01402 7.71276C8.98182 7.63509 8.97338 7.54962 8.98976 7.46716C9.00614 7.38469 9.04661 7.30893 9.10604 7.24947C9.16548 7.19 9.24122 7.1495 9.32368 7.13309C9.40614 7.11667 9.49161 7.12508 9.56929 7.15724C9.64697 7.18941 9.71337 7.24389 9.76009 7.3138C9.8068 7.3837 9.83173 7.46589 9.83173 7.54997C9.83151 7.66255 9.78667 7.77046 9.70703 7.85005C9.62739 7.92964 9.51945 7.97441 9.40686 7.97456V7.97503Z" fill="#363233"/>
<path d="M2.59312 8.99768C2.44417 8.99768 2.29857 9.04185 2.17472 9.1246C2.05088 9.20735 1.95435 9.32497 1.89735 9.46258C1.84035 9.60019 1.82544 9.75161 1.8545 9.8977C1.88356 10.0438 1.95528 10.178 2.0606 10.2833C2.16593 10.3886 2.30011 10.4603 2.4462 10.4894C2.59229 10.5185 2.74371 10.5035 2.88132 10.4465C3.01893 10.3895 3.13655 10.293 3.2193 10.1692C3.30205 10.0453 3.34622 9.89972 3.34622 9.75077C3.34602 9.5511 3.26661 9.35967 3.12542 9.21848C2.98423 9.07729 2.79279 8.99788 2.59312 8.99768ZM2.59312 10.1757C2.50907 10.1757 2.42691 10.1508 2.35702 10.1041C2.28714 10.0574 2.23267 9.99106 2.2005 9.9134C2.16834 9.83575 2.15992 9.7503 2.17632 9.66787C2.19272 9.58543 2.23319 9.50971 2.29262 9.45028C2.35206 9.39084 2.42778 9.35037 2.51021 9.33397C2.59265 9.31757 2.6781 9.32599 2.75575 9.35815C2.8334 9.39032 2.89977 9.44479 2.94647 9.51467C2.99317 9.58456 3.01809 9.66672 3.01809 9.75077C3.01799 9.86345 2.97319 9.97149 2.89351 10.0512C2.81383 10.1308 2.7058 10.1756 2.59312 10.1757Z" fill="#363233"/>
<path d="M4.86439 8.99768C4.71544 8.99768 4.56984 9.04185 4.446 9.1246C4.32215 9.20735 4.22562 9.32497 4.16862 9.46258C4.11162 9.60019 4.09671 9.75161 4.12577 9.8977C4.15483 10.0438 4.22655 10.178 4.33187 10.2833C4.4372 10.3886 4.57138 10.4603 4.71747 10.4894C4.86356 10.5185 5.01498 10.5035 5.15259 10.4465C5.2902 10.3895 5.40782 10.293 5.49057 10.1692C5.57332 10.0453 5.61749 9.89972 5.61749 9.75077C5.61726 9.55111 5.53785 9.35969 5.39666 9.2185C5.25548 9.07732 5.06406 8.9979 4.86439 8.99768ZM4.86439 10.1757C4.78034 10.1757 4.69818 10.1508 4.62829 10.1041C4.55841 10.0574 4.50394 9.99106 4.47177 9.9134C4.43961 9.83575 4.43119 9.7503 4.44759 9.66787C4.46399 9.58543 4.50446 9.50971 4.56389 9.45028C4.62333 9.39084 4.69905 9.35037 4.78148 9.33397C4.86392 9.31757 4.94937 9.32599 5.02702 9.35815C5.10467 9.39032 5.17104 9.44479 5.21774 9.51467C5.26444 9.58456 5.28936 9.66672 5.28936 9.75077C5.28924 9.86344 5.24442 9.97146 5.16475 10.0511C5.08508 10.1308 4.97706 10.1756 4.86439 10.1757Z" fill="#363233"/>
<path d="M7.13558 8.99768C6.98664 8.99768 6.84103 9.04185 6.71719 9.1246C6.59334 9.20735 6.49682 9.32497 6.43982 9.46258C6.38282 9.60019 6.3679 9.75161 6.39696 9.8977C6.42602 10.0438 6.49775 10.178 6.60307 10.2833C6.70839 10.3886 6.84258 10.4603 6.98866 10.4894C7.13475 10.5185 7.28617 10.5035 7.42378 10.4465C7.56139 10.3895 7.67901 10.293 7.76176 10.1692C7.84451 10.0453 7.88868 9.89972 7.88868 9.75077C7.88845 9.55111 7.80904 9.35969 7.66786 9.2185C7.52667 9.07732 7.33525 8.9979 7.13558 8.99768ZM7.13558 10.1757C7.05153 10.1757 6.96937 10.1508 6.89948 10.1041C6.8296 10.0574 6.77513 9.99106 6.74297 9.9134C6.7108 9.83575 6.70238 9.7503 6.71878 9.66787C6.73518 9.58543 6.77565 9.50971 6.83509 9.45028C6.89452 9.39084 6.97024 9.35037 7.05268 9.33397C7.13511 9.31757 7.22056 9.32599 7.29821 9.35815C7.37587 9.39032 7.44224 9.44479 7.48893 9.51467C7.53563 9.58456 7.56055 9.66672 7.56055 9.75077C7.56045 9.86345 7.51565 9.97149 7.43597 10.0512C7.3563 10.1308 7.24826 10.1756 7.13558 10.1757Z" fill="#363233"/>
<path d="M9.40687 8.99768C9.25792 8.99766 9.11231 9.04181 8.98845 9.12455C8.86459 9.20729 8.76805 9.32491 8.71104 9.46251C8.65403 9.60012 8.6391 9.75155 8.66815 9.89764C8.69719 10.0437 8.76891 10.1779 8.87423 10.2833C8.97955 10.3886 9.11374 10.4603 9.25982 10.4894C9.40591 10.5185 9.55734 10.5036 9.69495 10.4466C9.83257 10.3896 9.95019 10.293 10.0329 10.1692C10.1157 10.0453 10.1599 9.89973 10.1599 9.75078C10.1597 9.55112 10.0803 9.3597 9.93911 9.21851C9.79794 9.07732 9.60653 8.9979 9.40687 8.99768ZM9.40687 10.1757C9.32282 10.1758 9.24065 10.1509 9.17075 10.1042C9.10085 10.0575 9.04637 9.99112 9.01419 9.91347C8.98201 9.83582 8.97358 9.75037 8.98997 9.66793C9.00635 9.58548 9.04682 9.50975 9.10625 9.45031C9.16568 9.39087 9.2414 9.35038 9.32384 9.33398C9.40628 9.31757 9.49173 9.32598 9.56939 9.35815C9.64704 9.39031 9.71342 9.44478 9.76012 9.51467C9.80682 9.58455 9.83175 9.66672 9.83175 9.75078C9.83165 9.86344 9.78686 9.97146 9.7072 10.0511C9.62755 10.1308 9.51953 10.1756 9.40687 10.1757Z" fill="#363233"/>
</svg>
