<svg width="12" height="12" viewBox="0 0 12 12" fill="none" xmlns="http://www.w3.org/2000/svg">
<path d="M11.4 3.85714H11C10.8896 3.85714 10.8 3.95309 10.8 4.07143V4.71429H10.4V3.42857C10.4 3.31023 10.3105 3.21429 10.2 3.21429H8.4V2.78571H9.2C9.31045 2.78571 9.4 2.68977 9.4 2.57143V1.71429C9.4 1.59595 9.31045 1.5 9.2 1.5H5.8C5.68955 1.5 5.6 1.59595 5.6 1.71429V2.57143C5.6 2.68977 5.68955 2.78571 5.8 2.78571H6.6V3.21429H5C4.97598 3.21426 4.95213 3.21884 4.9296 3.22779L3.3636 3.85714H1.8C1.68955 3.85714 1.6 3.95309 1.6 4.07143V5.78571H1.2V4.07143C1.2 3.95309 1.11045 3.85714 1 3.85714H0.2C0.08955 3.85714 0 3.95309 0 4.07143V9C0 9.11834 0.08955 9.21429 0.2 9.21429H1C1.11045 9.21429 1.2 9.11834 1.2 9V7.28571H1.6V9C1.6 9.11834 1.68955 9.21429 1.8 9.21429H3.3334L4.88 10.4571C4.91463 10.485 4.95673 10.5 5 10.5H9.2C9.24543 10.5 9.28953 10.4835 9.325 10.4531L10.325 9.59593C10.3724 9.55524 10.4 9.49366 10.4 9.42857V8.35714H10.8V9C10.8 9.11834 10.8896 9.21429 11 9.21429H11.4C11.7314 9.21429 12 8.92647 12 8.57143V4.5C12 4.14496 11.7314 3.85714 11.4 3.85714ZM0.8 6V8.78571H0.4V4.28571H0.8V6ZM1.6 6.85714H1.2V6.21429H1.6V6.85714ZM6 2.35714V1.92857H9V2.35714H6ZM8 2.78571V3.21429H7V2.78571H8ZM11.6 8.57143C11.6 8.68977 11.5105 8.78571 11.4 8.78571H11.2V8.14286C11.2 8.02452 11.1104 7.92857 11 7.92857H10.2C10.0896 7.92857 10 8.02452 10 8.14286V9.32571L9.1298 10.0714H5.0666L3.52 8.82857C3.48538 8.80074 3.44327 8.78571 3.4 8.78571H2V4.28571H3.4C3.42403 4.28574 3.44788 4.28116 3.4704 4.27221L5.0364 3.64286H10V4.92857C10 5.04691 10.0896 5.14286 10.2 5.14286H11C11.1104 5.14286 11.2 5.04691 11.2 4.92857V4.28571H11.4C11.5105 4.28571 11.6 4.38166 11.6 4.5V8.57143Z" fill="#363233"/>
</svg>
