<svg width="13" height="13" viewBox="0 0 13 13" fill="none" xmlns="http://www.w3.org/2000/svg">
<path d="M11.2988 1.16797H9.77539C9.72825 1.16797 9.68305 1.18669 9.64971 1.22003C9.61638 1.25336 9.59766 1.29857 9.59766 1.3457V2.69141H7.94727V1.98047C7.94727 1.93333 7.92854 1.88812 7.89521 1.85479C7.86188 1.82146 7.81667 1.80273 7.76953 1.80273H5.23047C5.18333 1.80273 5.13812 1.82146 5.10479 1.85479C5.07146 1.88812 5.05273 1.93333 5.05273 1.98047V2.69141H3.40234V1.3457C3.40234 1.29857 3.38362 1.25336 3.35029 1.22003C3.31696 1.18669 3.27175 1.16797 3.22461 1.16797H1.70117C1.65403 1.16797 1.60883 1.18669 1.57549 1.22003C1.54216 1.25336 1.52344 1.29857 1.52344 1.3457V4.39258C1.52344 4.43972 1.54216 4.48492 1.57549 4.51826C1.60883 4.55159 1.65403 4.57031 1.70117 4.57031H3.22461C3.27175 4.57031 3.31696 4.55159 3.35029 4.51826C3.38362 4.48492 3.40234 4.43972 3.40234 4.39258V3.04688H5.05273V3.75781C5.05273 3.80495 5.07146 3.85016 5.10479 3.88349C5.13812 3.91682 5.18333 3.93555 5.23047 3.93555H5.81445V4.49414C5.81445 4.54128 5.83318 4.58649 5.86651 4.61982C5.89984 4.65315 5.94505 4.67188 5.99219 4.67188H6.32227V8.69489C6.00253 8.73497 5.70527 8.88042 5.47741 9.10827C5.24956 9.33613 5.10411 9.63339 5.06403 9.95312H3.40234V8.60742C3.40234 8.56028 3.38362 8.51508 3.35029 8.48174C3.31696 8.44841 3.27175 8.42969 3.22461 8.42969H1.70117C1.65403 8.42969 1.60883 8.44841 1.57549 8.48174C1.54216 8.51508 1.52344 8.56028 1.52344 8.60742V11.6543C1.52344 11.7014 1.54216 11.7466 1.57549 11.78C1.60883 11.8133 1.65403 11.832 1.70117 11.832H3.22461C3.27175 11.832 3.31696 11.8133 3.35029 11.78C3.38362 11.7466 3.40234 11.7014 3.40234 11.6543V10.3086H5.06403C5.10732 10.6589 5.27719 10.9814 5.54167 11.2152C5.80615 11.449 6.14699 11.5781 6.5 11.5781C6.85301 11.5781 7.19385 11.449 7.45833 11.2152C7.72281 10.9814 7.89268 10.6589 7.93597 10.3086H9.59766V11.6543C9.59766 11.7014 9.61638 11.7466 9.64971 11.78C9.68305 11.8133 9.72825 11.832 9.77539 11.832H11.2988C11.346 11.832 11.3912 11.8133 11.4245 11.78C11.4578 11.7466 11.4766 11.7014 11.4766 11.6543V8.60742C11.4766 8.56028 11.4578 8.51508 11.4245 8.48174C11.3912 8.44841 11.346 8.42969 11.2988 8.42969H9.77539C9.72825 8.42969 9.68305 8.44841 9.64971 8.48174C9.61638 8.51508 9.59766 8.56028 9.59766 8.60742V9.95312H7.93597C7.89589 9.63339 7.75044 9.33613 7.52259 9.10827C7.29473 8.88042 6.99747 8.73497 6.67773 8.69489V4.67188H7.00781C7.05495 4.67188 7.10016 4.65315 7.13349 4.61982C7.16682 4.58649 7.18555 4.54128 7.18555 4.49414V3.93555H7.76953C7.81667 3.93555 7.86188 3.91682 7.89521 3.88349C7.92854 3.85016 7.94727 3.80495 7.94727 3.75781V3.04688H9.59766V4.39258C9.59766 4.43972 9.61638 4.48492 9.64971 4.51826C9.68305 4.55159 9.72825 4.57031 9.77539 4.57031H11.2988C11.346 4.57031 11.3912 4.55159 11.4245 4.51826C11.4578 4.48492 11.4766 4.43972 11.4766 4.39258V1.3457C11.4766 1.29857 11.4578 1.25336 11.4245 1.22003C11.3912 1.18669 11.346 1.16797 11.2988 1.16797ZM3.04688 4.21484H1.87891V1.52344H3.04688V4.21484ZM3.04688 11.4766H1.87891V8.78516H3.04688V11.4766ZM9.95312 8.78516H11.1211V11.4766H9.95312V8.78516ZM7.5918 10.1309C7.5918 10.3468 7.52776 10.5579 7.4078 10.7374C7.28783 10.917 7.11731 11.0569 6.91781 11.1395C6.71831 11.2222 6.49879 11.2438 6.287 11.2017C6.07521 11.1596 5.88067 11.0556 5.72798 10.9029C5.57529 10.7502 5.47131 10.5556 5.42918 10.3439C5.38705 10.1321 5.40868 9.91255 5.49131 9.71305C5.57395 9.51355 5.71388 9.34303 5.89343 9.22306C6.07298 9.1031 6.28406 9.03906 6.5 9.03906C6.78946 9.03939 7.06697 9.15453 7.27165 9.35921C7.47633 9.56389 7.59147 9.8414 7.5918 10.1309ZM6.83008 4.31641H6.16992V3.93555H6.83008V4.31641ZM7.5918 3.58008H5.4082V2.1582H7.5918V3.58008ZM11.1211 4.21484H9.95312V1.52344H11.1211V4.21484Z" fill="#363233"/>
</svg>
