<svg width="13" height="14" viewBox="0 0 13 14" fill="none" xmlns="http://www.w3.org/2000/svg">
<path d="M4.45206 0.569144C4.21398 0.429253 3.90757 0.508855 3.76767 0.746941C3.62778 0.985027 3.70738 1.29144 3.94547 1.43133L4.45206 0.569144ZM6.5 2.35237L6.91777 2.62709C6.99304 2.51263 7.01805 2.37231 6.98696 2.2389C6.95587 2.10549 6.87141 1.99067 6.7533 1.92128L6.5 2.35237ZM4.70149 4.17737C4.54977 4.4081 4.61382 4.71814 4.84454 4.86986C5.07527 5.02158 5.38531 4.95754 5.53703 4.72681L4.70149 4.17737ZM10.402 3.36365C10.198 3.1776 9.88171 3.19218 9.69566 3.39623C9.5096 3.60028 9.52418 3.91653 9.72823 4.10259L10.402 3.36365ZM3.94547 1.43133L6.24671 2.78346L6.7533 1.92128L4.45206 0.569144L3.94547 1.43133ZM6.08224 2.07765L4.70149 4.17737L5.53703 4.72681L6.91777 2.62709L6.08224 2.07765ZM11.2929 7.64523C11.2929 10.2922 9.14702 12.4381 6.5 12.4381V13.4381C9.69931 13.4381 12.2929 10.8445 12.2929 7.64523H11.2929ZM6.5 12.4381C3.85299 12.4381 1.70715 10.2922 1.70715 7.64523H0.707153C0.707153 10.8445 3.3007 13.4381 6.5 13.4381V12.4381ZM1.70715 7.64523C1.70715 4.99821 3.85299 2.85237 6.5 2.85237V1.85237C3.3007 1.85237 0.707153 4.44593 0.707153 7.64523H1.70715ZM9.72823 4.10259C10.6903 4.97982 11.2929 6.2418 11.2929 7.64523H12.2929C12.2929 5.94895 11.5631 4.42239 10.402 3.36365L9.72823 4.10259Z" fill="black"/>
</svg>
