<svg width="15" height="16" viewBox="0 0 15 16" fill="none" xmlns="http://www.w3.org/2000/svg">
<path d="M1.99714 13.1726C2.10454 13.2315 4.6604 14.6158 7.5 14.6158C10.5764 14.6158 12.9132 13.2269 13.0112 13.1678C13.0459 13.1469 13.0746 13.1172 13.0946 13.0818C13.1145 13.0464 13.125 13.0064 13.125 12.9657C13.125 11.0623 12.5447 9.32056 11.4911 8.06107C10.754 7.18 9.82925 6.57946 8.80928 6.303C9.43364 6.00415 9.93837 5.50058 10.2405 4.87503C10.5427 4.24948 10.6243 3.53915 10.472 2.86076C10.3197 2.18236 9.94255 1.57625 9.40245 1.142C8.86235 0.707749 8.19145 0.471191 7.5 0.471191C6.80855 0.471191 6.13765 0.707749 5.59755 1.142C5.05745 1.57625 4.68026 2.18236 4.52796 2.86076C4.37565 3.53915 4.45729 4.24948 4.75946 4.87503C5.06163 5.50058 5.56636 6.00415 6.19072 6.303C5.17075 6.57946 4.24597 7.18009 3.50892 8.06107C2.45528 9.32056 1.875 11.0623 1.875 12.9657C1.875 13.008 1.88634 13.0496 1.90784 13.086C1.92933 13.1224 1.96018 13.1523 1.99714 13.1726ZM4.92188 3.53615C4.92188 3.02328 5.07308 2.52193 5.35637 2.09549C5.63966 1.66906 6.0423 1.33669 6.51339 1.14042C6.98448 0.944157 7.50286 0.892805 8.00297 0.99286C8.50307 1.09292 8.96245 1.33989 9.32301 1.70254C9.68357 2.06519 9.92911 2.52724 10.0286 3.03026C10.1281 3.53327 10.077 4.05466 9.88188 4.52849C9.68674 5.00232 9.3563 5.40731 8.93233 5.69224C8.50836 5.97718 8.0099 6.12926 7.5 6.12926C6.81648 6.12848 6.16117 5.85503 5.67785 5.3689C5.19452 4.88276 4.92265 4.22365 4.92188 3.53615ZM3.86757 8.36461C4.81934 7.22715 6.10922 6.60074 7.5 6.60074C8.89078 6.60074 10.1807 7.22715 11.1324 8.36461C12.0899 9.50906 12.6282 11.0897 12.6552 12.8281C12.1537 13.1012 10.0696 14.1443 7.5 14.1443C5.12373 14.1443 2.88574 13.095 2.34492 12.8226C2.37305 11.0863 2.91114 9.50785 3.86757 8.36461Z" fill="#05ACE2"/>
</svg>
