<svg width="15" height="15" viewBox="0 0 15 15" fill="none" xmlns="http://www.w3.org/2000/svg">
<path d="M14.9752 4.68556C14.7563 2.27561 13.0505 0.527144 10.9158 0.527144C9.49358 0.527144 8.19139 1.29248 7.45866 2.51909C6.73256 1.27661 5.48374 0.526855 4.08433 0.526855C1.94988 0.526855 0.243818 2.27532 0.0251514 4.68527C0.0078427 4.79172 -0.0631229 5.35194 0.152659 6.26555C0.463638 7.58332 1.18195 8.78195 2.22941 9.73104L7.4552 14.4733L12.7707 9.73133C13.8182 8.78195 14.5365 7.58361 14.8474 6.26555C15.0632 5.35223 14.9923 4.79201 14.9752 4.68556ZM14.2858 6.13343C14.0019 7.33696 13.3439 8.43347 12.3847 9.30236L7.45866 13.6973L2.61713 9.30352C1.65621 8.43289 0.998477 7.33667 0.714326 6.13314C0.510083 5.26857 0.59403 4.78018 0.594319 4.777L0.598646 4.74787C0.786157 2.6365 2.25191 1.10381 4.08433 1.10381C5.43643 1.10381 6.62669 1.93463 7.19153 3.27173L7.45722 3.90147L7.7229 3.27173C8.2788 1.95511 9.53195 1.1041 10.9161 1.1041C12.7482 1.1041 14.2142 2.63679 14.4055 4.77556C14.4061 4.78018 14.49 5.26886 14.2858 6.13343Z" fill="#05ACE2"/>
</svg>
