<svg width="7" height="8" viewBox="0 0 7 8" fill="none" xmlns="http://www.w3.org/2000/svg">
<path d="M4.09824 6.48901H2.22524V8H1.15735V6.48901H0V5.62088H1.15735V4.86813H0V4.00549H1.15735V0H4.15974C5.03195 0 5.72338 0.217949 6.23403 0.653846C6.74468 1.08974 7 1.67949 7 2.42308C7 3.2033 6.75399 3.80586 6.26198 4.23077C5.7737 4.65201 5.07854 4.86447 4.17652 4.86813H2.22524V5.62088H4.09824V6.48901ZM2.22524 4.00549H4.15974C4.73749 4.00549 5.17732 3.87179 5.47923 3.6044C5.78115 3.337 5.93211 2.94689 5.93211 2.43407C5.93211 1.96886 5.77556 1.59341 5.46246 1.30769C5.14936 1.01832 4.7263 0.871795 4.19329 0.868132H2.22524V4.00549Z" fill="#221E1F"/>
</svg>
