<svg width="18" height="16" viewBox="0 0 18 16" fill="none" xmlns="http://www.w3.org/2000/svg">
<path d="M7.54596 1.89819H3.17912C2.9781 1.89819 2.81531 2.05836 2.81531 2.25621C2.81531 2.45415 2.9781 2.61423 3.17912 2.61423H7.54596C7.74716 2.61423 7.90978 2.45415 7.90978 2.25621C7.90978 2.05836 7.74716 1.89819 7.54596 1.89819Z" fill="#05ACE2"/>
<path d="M14.8239 1.89819H10.4571C10.2561 1.89819 10.0933 2.05836 10.0933 2.25621C10.0933 2.45415 10.2561 2.61423 10.4571 2.61423H14.8239C15.0251 2.61423 15.1878 2.45415 15.1877 2.25621C15.1877 2.05836 15.0251 1.89819 14.8239 1.89819Z" fill="#05ACE2"/>
<path d="M5.36249 9.05811C5.16129 9.05811 4.99868 9.21827 4.99868 9.41612C4.99868 10.4034 4.18197 11.2061 3.17907 11.2061C2.17563 11.2061 1.35964 10.4034 1.35964 9.41612C1.35964 9.21827 1.19685 9.05811 0.99583 9.05811C0.794632 9.05811 0.631836 9.21827 0.631836 9.41612C0.631836 10.7978 1.77478 11.9221 3.17907 11.9221C4.58345 11.9221 5.72649 10.7979 5.72649 9.41612C5.72649 9.21827 5.56369 9.05811 5.36249 9.05811Z" fill="#05ACE2"/>
<path d="M5.36249 9.05811H0.99583C0.794632 9.05811 0.631836 9.21827 0.631836 9.41612C0.631836 9.61407 0.794632 9.77414 0.99583 9.77414H5.36258C5.56378 9.77414 5.72658 9.61407 5.72649 9.41612C5.72649 9.21827 5.56369 9.05811 5.36249 9.05811Z" fill="#05ACE2"/>
<path d="M3.32196 3.35941C3.13869 3.28108 2.9233 3.36505 2.8444 3.54679L0.660982 8.55891C0.582086 8.74065 0.667445 8.95122 0.852263 9.02875C0.899218 9.04898 0.947536 9.05811 0.995856 9.05811C1.13663 9.05811 1.27085 8.97709 1.32982 8.84137L3.51324 3.82925C3.59286 3.64751 3.50678 3.43694 3.32196 3.35941Z" fill="#05ACE2"/>
<path d="M5.69673 8.55905L3.51331 3.54692C3.43368 3.3651 3.21902 3.27978 3.03575 3.35954C2.85084 3.43707 2.76557 3.64764 2.84447 3.82938L5.02789 8.8415C5.08695 8.97722 5.22108 9.05824 5.36258 9.05824C5.41018 9.05824 5.45922 9.0492 5.50545 9.02888C5.69036 8.95135 5.77635 8.74079 5.69673 8.55905Z" fill="#05ACE2"/>
<path d="M17.0073 9.05811C16.8061 9.05811 16.6433 9.21827 16.6433 9.41612C16.6433 10.4034 15.8267 11.2061 14.8238 11.2061C13.8202 11.2061 13.0044 10.4034 13.0044 9.41612C13.0044 9.21827 12.8416 9.05811 12.6404 9.05811C12.4392 9.05811 12.2766 9.21827 12.2766 9.41612C12.2766 10.7978 13.4194 11.9221 14.8238 11.9221C16.2283 11.9221 17.3712 10.7979 17.3711 9.41612C17.371 9.21827 17.2082 9.05811 17.0073 9.05811Z" fill="#05ACE2"/>
<path d="M17.0074 9.05811H12.6405C12.4393 9.05811 12.2767 9.21827 12.2767 9.41612C12.2767 9.61407 12.4393 9.77414 12.6405 9.77414H17.0074C17.2084 9.77414 17.3712 9.61407 17.3712 9.41612C17.3712 9.21827 17.2084 9.05811 17.0074 9.05811Z" fill="#05ACE2"/>
<path d="M14.9667 3.35941C14.7827 3.28108 14.5686 3.36505 14.489 3.54679L12.3058 8.55891C12.2269 8.74065 12.3122 8.95122 12.4969 9.02875C12.5438 9.04898 12.5921 9.05811 12.6405 9.05811C12.7812 9.05811 12.9156 8.97709 12.9746 8.84137L15.1578 3.82925C15.2375 3.64751 15.1514 3.43694 14.9667 3.35941Z" fill="#05ACE2"/>
<path d="M17.3414 8.55905L15.158 3.54692C15.0791 3.3651 14.8631 3.27978 14.6804 3.35954C14.4955 3.43707 14.4102 3.64764 14.4891 3.82938L16.6725 8.8415C16.7316 8.97722 16.8659 9.05824 17.0074 9.05824C17.0548 9.05824 17.1039 9.0492 17.1501 9.02888C17.335 8.95135 17.421 8.74079 17.3414 8.55905Z" fill="#05ACE2"/>
<path d="M9.00159 1.18188C8.39964 1.18188 7.90979 1.66372 7.90979 2.25593C7.90979 2.84815 8.39964 3.32998 9.00159 3.32998C9.60355 3.32998 10.0932 2.84815 10.0932 2.25593C10.0932 1.66372 9.60355 1.18188 9.00159 1.18188ZM9.00159 2.61395C8.8004 2.61395 8.6376 2.45316 8.6376 2.25593C8.6376 2.0588 8.8004 1.89791 9.00159 1.89791C9.20188 1.89791 9.3654 2.0588 9.3654 2.25593C9.3654 2.45316 9.20188 2.61395 9.00159 2.61395Z" fill="#05ACE2"/>
<path d="M9.00169 0.466064C8.80049 0.466064 8.6377 0.626139 8.6377 0.823991V1.54002C8.6377 1.73796 8.80049 1.89803 9.00169 1.89803C9.20271 1.89803 9.3655 1.73796 9.3655 1.54002V0.823991C9.3655 0.626139 9.20271 0.466064 9.00169 0.466064Z" fill="#05ACE2"/>
<path d="M9.00169 3.33008C8.80049 3.33008 8.6377 3.49015 8.6377 3.68809V13.7123C8.6377 13.9102 8.80049 14.0704 9.00169 14.0704C9.20271 14.0704 9.3655 13.9101 9.3655 13.7123V3.68809C9.3655 3.49015 9.20271 3.33008 9.00169 3.33008Z" fill="#05ACE2"/>
<path d="M12.6405 13.3542H5.36247C5.16127 13.3542 4.99866 13.5144 4.99866 13.7123C4.99866 13.9101 5.16127 14.0703 5.36247 14.0703H12.6405C12.8417 14.0703 13.0045 13.9101 13.0045 13.7123C13.0045 13.5144 12.8417 13.3542 12.6405 13.3542Z" fill="#05ACE2"/>
<path d="M5.36261 13.3542C4.76066 13.3542 4.271 13.836 4.271 14.4283C4.271 14.6261 4.43379 14.7863 4.63481 14.7863C4.836 14.7863 4.9988 14.6261 4.9988 14.4283C4.9988 14.2311 5.16141 14.0703 5.36261 14.0703C5.56381 14.0703 5.72661 13.9101 5.72661 13.7123C5.72661 13.5144 5.56381 13.3542 5.36261 13.3542Z" fill="#05ACE2"/>
<path d="M12.6404 13.3542C12.4392 13.3542 12.2766 13.5144 12.2766 13.7123C12.2766 13.9101 12.4392 14.0703 12.6404 14.0703C12.8409 14.0703 13.0044 14.2311 13.0044 14.4283C13.0044 14.6261 13.167 14.7863 13.3682 14.7863C13.5694 14.7863 13.7322 14.6261 13.7322 14.4283C13.7322 13.836 13.2424 13.3542 12.6404 13.3542Z" fill="#05ACE2"/>
<path d="M4.63481 14.0703C4.43379 14.0703 4.271 14.2304 4.271 14.4283V15.1443C4.271 15.3422 4.43379 15.5024 4.63481 15.5024C4.836 15.5024 4.9988 15.3422 4.9988 15.1443V14.4283C4.9988 14.2304 4.836 14.0703 4.63481 14.0703Z" fill="#05ACE2"/>
<path d="M13.3683 14.0703C13.1671 14.0703 13.0045 14.2304 13.0045 14.4283V15.1443C13.0045 15.3422 13.1671 15.5024 13.3683 15.5024C13.5695 15.5024 13.7323 15.3422 13.7323 15.1443V14.4283C13.7323 14.2304 13.5695 14.0703 13.3683 14.0703Z" fill="#05ACE2"/>
<path d="M13.3683 14.7866H4.63469C4.43367 14.7866 4.27087 14.9467 4.27087 15.1445C4.27087 15.3425 4.43367 15.5026 4.63469 15.5026H13.3683C13.5695 15.5026 13.7323 15.3425 13.7323 15.1445C13.7323 14.9467 13.5695 14.7866 13.3683 14.7866Z" fill="#05ACE2"/>
</svg>
