<svg width="16" height="16" viewBox="0 0 16 16" fill="none" xmlns="http://www.w3.org/2000/svg">
<path d="M6.91689 3.23067L5.00726 1.32104C4.83 1.14378 4.53557 1.15081 4.34964 1.33674L3.01993 2.66646C1.33665 4.34973 3.8781 7.56451 5.79827 9.48467C7.70693 11.3933 10.9493 13.9624 12.6326 12.2791L13.9623 10.9494C14.1483 10.7635 14.1553 10.4691 13.978 10.2918L12.0684 8.38217C11.8911 8.20491 11.5967 8.21194 11.4108 8.39787L10.0811 9.72757C10.0811 9.72757 9.44038 9.72633 7.48962 7.80944C5.53887 5.89255 5.57149 5.218 5.57149 5.218L6.9012 3.88829C7.08713 3.70236 7.09416 3.40794 6.91689 3.23067Z" stroke="#05ACE2" stroke-linecap="round" stroke-linejoin="round"/>
</svg>
