<svg width="60" height="21" viewBox="0 0 60 21" fill="none" xmlns="http://www.w3.org/2000/svg">
<path fill-rule="evenodd" clip-rule="evenodd" d="M60 11.7287H58.7577C58.2775 7.77247 54.7024 6.50636 50.0208 6.18625L37.6655 5.3429L27.4737 0L26.4035 0.0710568L34.5727 5.1326L31.456 4.91872L31.3396 7.23274L19.1903 6.77625L19.2185 4.2907L18.2025 4.16078L18.2423 6.39514C16.9262 6.48055 15.9803 5.92214 15.297 4.90653L3.50494 6.18627C2.36891 6.30973 1.42667 7.11719 1.42667 8.24979V11.7287H-6.48499e-05V15.1488C-6.48499e-05 15.9921 0.694862 16.6819 1.54454 16.6819H5.67143C5.45232 16.0739 5.33228 15.4201 5.33228 14.7382C5.33228 11.5572 7.93047 8.9776 11.1361 8.9776C14.341 8.9776 16.9392 11.5572 16.9392 14.7382C16.9392 15.4201 16.8199 16.074 16.6008 16.6819H43.5719C43.3528 16.0739 43.2335 15.4201 43.2335 14.7382C43.2335 11.5572 45.8317 8.9776 49.0366 8.9776C52.2422 8.9776 54.8404 11.5572 54.8404 14.7382C54.8404 15.4201 54.7204 16.074 54.5013 16.6819H58.4561C59.305 16.6819 60 15.9921 60 15.1488V11.7287L60 11.7287ZM58.0396 11.6641H55.2498V8.57778C56.6555 8.63377 57.5377 9.76134 58.0396 11.6641Z" fill="#999797"/>
<path d="M49.0375 9.48035C46.1117 9.48035 43.7369 11.8381 43.7369 14.7422C43.7369 17.6462 46.1117 20.004 49.0375 20.004C51.9654 20.004 54.3387 17.6483 54.3387 14.7422C54.3387 11.836 51.9654 9.48035 49.0375 9.48035ZM49.0375 10.7465C51.2596 10.7465 53.0631 12.5365 53.0631 14.7421C53.0631 16.9478 51.2596 18.7378 49.0375 18.7378C46.8138 18.7378 45.0125 16.9492 45.0125 14.7421C45.0125 12.5351 46.8138 10.7465 49.0375 10.7465Z" fill="#999797"/>
<path d="M11.1349 9.48035C8.20697 9.48035 5.83365 11.836 5.83365 14.7422C5.83365 17.6483 8.20695 20.004 11.1349 20.004C14.0628 20.004 16.4362 17.6483 16.4362 14.7422C16.4362 11.836 14.0629 9.48035 11.1349 9.48035ZM11.1349 10.7465C13.3571 10.7465 15.1606 12.5365 15.1606 14.7421C15.1606 16.9478 13.3571 18.7378 11.1349 18.7378C8.91273 18.7378 7.10925 16.9478 7.10925 14.7421C7.10925 12.5365 8.91273 10.7465 11.1349 10.7465Z" fill="#999797"/>
<path fill-rule="evenodd" clip-rule="evenodd" d="M13.1754 11.7379C13.171 12.8044 12.7993 13.7425 12.3069 14.288C12.9685 14.189 13.6873 13.7935 14.4155 13.1547C13.8753 14.077 13.0799 14.705 12.3792 14.9326C13.0025 15.1752 13.824 15.1895 14.7771 14.9972C13.8443 15.5276 12.8406 15.6762 12.1182 15.5254C12.5354 16.0444 13.2397 16.465 14.1617 16.7722C13.0871 16.7678 12.142 16.3982 11.5924 15.9101C11.6922 16.5669 12.0907 17.281 12.7342 18.0031C11.8058 17.4662 11.173 16.6774 10.9431 15.9819C10.6987 16.6006 10.6842 17.416 10.878 18.362C10.3436 17.4361 10.1946 16.4399 10.3465 15.7221C9.82222 16.1363 9.39919 16.8361 9.0897 17.7512C9.09331 16.6839 9.46644 15.7458 9.95962 15.201C9.29723 15.3001 8.57772 15.6948 7.84954 16.3343C8.39044 15.412 9.18515 14.7847 9.88659 14.5572C9.26326 14.3139 8.44106 14.2995 7.48798 14.4919C8.42082 13.9615 9.42451 13.8129 10.1469 13.9636C9.72968 13.444 9.02536 13.0241 8.10337 12.7169C9.17794 12.7212 10.1224 13.0901 10.6726 13.5789C10.5729 12.9222 10.1744 12.208 9.53083 11.486C10.4601 12.0221 11.0928 12.8109 11.322 13.5071C11.5664 12.8884 11.5809 12.0731 11.3871 11.1271C11.9215 12.053 12.0712 13.0492 11.9193 13.7669C12.4429 13.3528 12.8659 12.653 13.1754 11.7379H13.1754Z" fill="#999797"/>
<path fill-rule="evenodd" clip-rule="evenodd" d="M51.0779 11.7386C51.0736 12.8052 50.7019 13.7426 50.2087 14.288C50.8711 14.189 51.5899 13.7935 52.3188 13.1547C51.7779 14.077 50.9832 14.705 50.2818 14.9319C50.9051 15.1752 51.7266 15.1895 52.6796 14.9972C51.7468 15.5276 50.7431 15.6762 50.0207 15.5254C50.4372 16.0444 51.1423 16.465 52.0635 16.7722C50.989 16.7678 50.0446 16.3982 49.495 15.9094C49.5948 16.5669 49.9932 17.281 50.6368 18.0038C49.7083 17.4669 49.0756 16.6781 48.8463 15.9819C48.6012 16.6006 48.5867 17.416 48.7805 18.362C48.2462 17.4361 48.0965 16.4391 48.249 15.7221C47.7248 16.1362 47.3017 16.836 46.9922 17.7504C46.9959 16.6839 47.369 15.7458 47.8622 15.201C47.1998 15.3001 46.4803 15.6948 45.7514 16.3343C46.2923 15.412 47.087 14.7847 47.7891 14.5572C47.1658 14.3139 46.3436 14.2995 45.3905 14.4919C46.3233 13.9615 47.327 13.8129 48.0495 13.9636C47.6329 13.444 46.9279 13.0241 46.0066 12.7169C47.0812 12.7212 48.0249 13.0901 48.5752 13.5796C48.4754 12.9222 48.0769 12.208 47.4334 11.4852C48.3626 12.0221 48.9953 12.8109 49.2238 13.5071C49.469 12.8884 49.4834 12.0731 49.2896 11.1271C49.824 12.053 49.9737 13.0499 49.8218 13.7669C50.3454 13.3528 50.7684 12.653 51.0779 11.7386H51.0779Z" fill="#999797"/>
</svg>
