<svg width="59" height="21" viewBox="0 0 59 21" fill="none" xmlns="http://www.w3.org/2000/svg">
<path fill-rule="evenodd" clip-rule="evenodd" d="M10.8988 18.1158C10.9401 18.1515 10.9804 18.1871 11.0227 18.2188C11.1053 18.2812 11.1898 18.3377 11.2793 18.3912C11.3491 18.4328 11.4199 18.4714 11.4927 18.508C11.5714 18.5467 11.6481 18.5833 11.7287 18.615C11.829 18.6536 11.9342 18.6834 12.0394 18.7121C12.1053 18.7289 12.1683 18.7507 12.2341 18.7636C12.4131 18.7973 12.595 18.819 12.7838 18.819C12.9716 18.819 13.1536 18.7973 13.3325 18.7636C13.3984 18.7507 13.4613 18.7289 13.5272 18.7121C13.6324 18.6834 13.7377 18.6536 13.838 18.615C13.9186 18.5833 13.9953 18.5467 14.073 18.508C14.1467 18.4714 14.2185 18.4328 14.2883 18.3902C14.3768 18.3377 14.4614 18.2812 14.543 18.2198C14.5863 18.1871 14.6276 18.1515 14.6679 18.1158C15.3139 17.5701 15.7338 16.7628 15.7338 15.8476C15.7338 14.2064 14.4122 12.8762 12.7838 12.8762C11.1544 12.8762 9.83382 14.2064 9.83382 15.8476C9.83382 16.7628 10.2527 17.571 10.8988 18.1158ZM17.7005 5.94286V3.016C17.3799 3.09128 17.0613 3.16754 16.7467 3.24777C16.6169 3.27947 16.4871 3.31314 16.3563 3.34682C15.9698 3.44785 15.5883 3.55185 15.2117 3.65783C15.0583 3.70141 14.9039 3.74499 14.7485 3.79055C14.5568 3.84602 14.365 3.90149 14.1772 3.95794L13.479 4.66217C12.9962 5.1485 12.8507 5.43375 12.8074 5.55261C12.9775 5.67048 13.5872 5.9389 15.6188 5.94286H17.7005ZM19.6672 5.94286H37.5215C37.5009 5.928 37.4822 5.91413 37.4606 5.89928C37.1833 5.70613 36.8863 5.50606 36.5608 5.30103C36.5392 5.28716 36.5126 5.2733 36.491 5.25943C36.1921 5.07322 35.8715 4.88404 35.5352 4.69585C35.4231 4.63345 35.3041 4.57105 35.1881 4.50865C34.9196 4.36404 34.6394 4.22141 34.3493 4.07977C34.2136 4.0144 34.0779 3.94804 33.9383 3.88366C33.6089 3.73211 33.2637 3.58552 32.9087 3.4429C32.8045 3.4013 32.7062 3.35672 32.6 3.31611C32.1407 3.13981 31.6609 2.97539 31.1633 2.82583C31.0433 2.78918 30.9155 2.75947 30.7926 2.7248C30.4071 2.61585 30.0118 2.51581 29.6057 2.42766C29.4287 2.39002 29.2478 2.35535 29.0668 2.32069C28.6794 2.24838 28.2821 2.18796 27.879 2.13844C27.702 2.11665 27.5279 2.0909 27.348 2.07406C26.7678 2.01859 26.1768 1.98095 25.5672 1.98095C25.2161 1.98095 24.8552 1.99185 24.4894 2.0077C24.3872 2.01265 24.2849 2.0176 24.1816 2.02354C23.8385 2.04236 23.4894 2.06613 23.1324 2.09981C23.0184 2.10971 22.9033 2.12358 22.7883 2.13547C22.5336 2.16221 22.275 2.19192 22.0144 2.22461C21.8433 2.2464 21.6732 2.26819 21.503 2.29196C21.2012 2.33455 20.8944 2.3821 20.5846 2.4336C20.3634 2.47124 20.1411 2.50987 19.9199 2.55048C19.8363 2.56632 19.7507 2.58316 19.6672 2.59901V5.94286ZM47.2821 18.1158C47.3234 18.1515 47.3637 18.1871 47.406 18.2188C47.4886 18.2812 47.5732 18.3377 47.6627 18.3912C47.7325 18.4328 47.8033 18.4714 47.876 18.508C47.9547 18.5467 48.0314 18.5833 48.112 18.615C48.2123 18.6536 48.3176 18.6834 48.4228 18.7121C48.4887 18.7289 48.5516 18.7507 48.6175 18.7636C48.7964 18.7973 48.9784 18.819 49.1672 18.819C49.355 18.819 49.5369 18.7973 49.7159 18.7636C49.7817 18.7507 49.8447 18.7289 49.9106 18.7121C50.0158 18.6834 50.121 18.6536 50.2213 18.615C50.3019 18.5833 50.3786 18.5467 50.4563 18.508C50.5301 18.4714 50.6018 18.4328 50.6717 18.3902C50.7602 18.3377 50.8447 18.2812 50.9263 18.2198C50.9696 18.1871 51.0109 18.1515 51.0512 18.1158C51.6973 17.5701 52.1172 16.7628 52.1172 15.8476C52.1172 14.2064 50.7956 12.8762 49.1672 12.8762C47.5378 12.8762 46.2172 14.2064 46.2172 15.8476C46.2172 16.7628 46.6361 17.571 47.2821 18.1158ZM0.938591 10.6456C1.00546 10.5545 1.07331 10.4644 1.13624 10.3643C1.83047 9.26293 1.96716 8.27147 1.96716 6.93333V5.94286C1.96716 5.39611 2.40671 4.95238 2.95049 4.95238H5.69006C6.71371 4.49676 11.3246 2.5168 16.7437 1.20244C16.7545 1.19947 16.7644 1.19749 16.7742 1.1955C17.2432 1.0816 17.7172 0.973638 18.1961 0.87261C18.3141 0.846857 18.4301 0.823086 18.5452 0.799314C18.909 0.724038 19.2719 0.654705 19.6386 0.588343C19.8422 0.551695 20.0428 0.517029 20.2434 0.484343C20.5305 0.43581 20.8177 0.391238 21.1058 0.349638C21.3732 0.31101 21.6358 0.277333 21.8983 0.245638C22.1314 0.216914 22.3644 0.18819 22.5975 0.164419C22.923 0.130743 23.2396 0.105981 23.5553 0.0832C23.7342 0.0703238 23.9142 0.0544762 24.0931 0.0445714C24.5966 0.0168381 25.0893 0 25.5672 0C26.11 0 26.64 0.0237714 27.1611 0.0633905C27.3342 0.0772571 27.5004 0.101029 27.6715 0.117867C28.0147 0.152533 28.3559 0.18819 28.6883 0.238705C28.883 0.267429 29.0708 0.304076 29.2625 0.337752C29.5605 0.391238 29.8565 0.445714 30.1456 0.510095C30.3393 0.552686 30.5291 0.599238 30.7188 0.646781C30.9942 0.716114 31.2646 0.787429 31.5311 0.864686C31.715 0.918172 31.8969 0.972648 32.0768 1.0301C32.3384 1.1133 32.5941 1.20046 32.8458 1.29059C33.0139 1.35002 33.1811 1.40945 33.3443 1.47185C33.601 1.5709 33.8488 1.67291 34.0936 1.77691C34.2382 1.83832 34.3847 1.89676 34.5253 1.96015C34.7938 2.08 35.0504 2.20381 35.3041 2.32861C35.4074 2.37912 35.5155 2.42766 35.6168 2.47916C35.9669 2.65745 36.3022 2.83672 36.6208 3.01798C36.6493 3.03383 36.6739 3.05067 36.7024 3.06651C36.9915 3.23192 37.2678 3.39733 37.5304 3.56175C37.6277 3.62316 37.7153 3.6816 37.8097 3.74202C37.9935 3.86088 38.1745 3.97874 38.3436 4.09364C38.4429 4.16198 38.5344 4.22735 38.6288 4.29371C38.7773 4.39771 38.9218 4.50072 39.0575 4.59977C39.147 4.66613 39.2286 4.72754 39.3122 4.79093C39.439 4.888 39.558 4.97912 39.6711 5.06827C39.7439 5.12571 39.8127 5.18019 39.8796 5.23467C39.9868 5.32183 40.0831 5.40206 40.1756 5.48031C40.2316 5.52686 40.2867 5.57242 40.3368 5.616C40.4283 5.69425 40.506 5.76358 40.5797 5.82895C40.6122 5.85867 40.6466 5.88838 40.6761 5.91512C40.6859 5.92404 40.6997 5.93592 40.7085 5.94385C44.5563 5.97059 59.0005 6.43611 59.0005 11.8857C59.0005 17.6622 56.3524 17.8286 56.0505 17.8286H53.6669C52.9058 19.5748 51.1771 20.8 49.1672 20.8C47.1562 20.8 45.4275 19.5748 44.6664 17.8286H17.2836C16.5225 19.5748 14.7938 20.8 12.7838 20.8C10.7729 20.8 9.04421 19.5748 8.28311 17.8286H6.88382C3.45691 17.8286 0.000492096 16.6034 0.000492096 13.8667C0.000492096 12.064 0.425289 11.3419 0.938591 10.6456Z" fill="#999797"/>
</svg>
