<svg width="55" height="23" viewBox="0 0 55 23" fill="none" xmlns="http://www.w3.org/2000/svg">
<path d="M4.928 1.58666C5.498 1.01999 6.296 0.67999 7.094 0.566657C15.302 -1.02001 31.718 1.35999 32.06 1.35999C32.402 1.47332 32.744 1.58666 33.086 1.69999C35.822 3.28666 38.558 4.87332 41.18 6.34666C41.978 6.79999 42.662 5.89332 51.212 7.59333C52.58 7.93332 53.72 8.95332 54.176 10.2C55.088 12.6933 55.088 14.7333 54.176 16.0933C53.492 17 52.58 17.5667 51.326 17.7933C51.668 12.92 47.678 9.17999 43.574 9.17999C38.672 9.17999 34.91 13.8267 35.822 18.2467C32.972 18.36 30.35 18.36 27.728 18.36C24.992 18.36 22.484 18.36 19.976 18.2467C20.774 13.6 17.126 9.29333 12.224 9.29333C7.322 9.29333 4.016 13.7133 4.358 17.34C4.13 17.34 3.902 17.2267 3.674 17.2267C1.736 16.66 0.368 15.0733 0.253998 13.1467C0.026001 9.63332 1.28 5.66666 4.928 1.58666ZM26.132 6.11999L36.62 6.34666C35.138 5.43999 33.656 4.64666 32.06 3.73999C31.604 3.51332 28.754 3.28666 25.904 3.05999L26.132 6.11999ZM12.452 4.19332C14.846 4.19332 16.1 5.09999 17.468 5.55332C17.81 5.66666 18.152 5.77999 18.608 5.77999L23.966 5.89332L23.738 2.71999C11.312 1.35999 8.918 2.71999 7.436 2.83332C7.208 2.83332 6.98 2.94666 6.752 3.05999C6.41 3.39999 6.068 3.85332 5.84 4.19332H12.452Z" fill="#999797"/>
<path d="M39.584 20.9666C40.496 21.8733 41.978 22.5533 43.46 22.5533C49.16 22.5533 50.414 16.2066 47.336 13.1466C42.092 7.9333 34.34 15.7533 39.584 20.9666Z" fill="#999797"/>
<path d="M17.468 18.1333C18.266 14.28 14.846 10.88 10.97 11.6733C6.638 12.4667 4.928 17.7933 8.12 20.9667C11.312 24.14 16.67 22.44 17.468 18.1333Z" fill="#999797"/>
</svg>
