<svg width="58" height="26" viewBox="0 0 58 26" fill="none" xmlns="http://www.w3.org/2000/svg">
<path d="M8.35999 16.1259C5.77999 16.1259 3.73999 18.2186 3.73999 20.73C3.73999 23.3011 5.83999 25.3341 8.35999 25.3341C10.94 25.3341 12.98 23.2413 12.98 20.73C12.98 18.1588 10.94 16.1259 8.35999 16.1259ZM8.17999 23.4805C6.67999 23.4805 5.47999 22.2846 5.47999 20.7898C5.47999 19.2949 6.67999 18.099 8.17999 18.099C9.67999 18.099 10.88 19.2949 10.88 20.7898C10.88 22.2248 9.67999 23.4805 8.17999 23.4805Z" fill="#999797"/>
<path d="M47.6 16.1259C45.02 16.1259 42.98 18.2186 42.98 20.73C42.98 23.3011 45.08 25.3341 47.6 25.3341C50.18 25.3341 52.22 23.2413 52.22 20.73C52.22 18.1588 50.18 16.1259 47.6 16.1259ZM47.6 23.4805C46.1 23.4805 44.9 22.2846 44.9 20.7898C44.9 19.2949 46.1 18.099 47.6 18.099C49.1 18.099 50.3 19.2949 50.3 20.7898C50.36 22.2248 49.1 23.4805 47.6 23.4805Z" fill="#999797"/>
<path d="M57.14 14.2124C57.02 11.7609 48.14 9.07015 47 8.77118L42.98 6.79798C42.68 6.6186 36.68 2.7918 29.18 1.11757C27.26 0.699013 24.74 0.459839 21.74 0.459839C15.62 0.459839 9.07999 1.35675 6.55999 1.7753H6.43999C5.35999 1.95468 1.81999 6.43922 2.23999 13.3155C1.27999 13.9732 0.799991 14.9299 0.859991 16.1856C0.919991 16.7238 1.15999 18.0392 1.45999 19.2949C2.05999 21.6866 2.23999 21.6866 2.41999 21.6866C2.53999 21.6866 2.65999 21.6866 2.71999 21.6866H2.95999L2.89999 21.4475C2.83999 21.2083 2.83999 20.9691 2.83999 20.7299C2.83999 17.7402 5.29999 15.2887 8.29999 15.2887C11.3 15.2887 13.76 17.7402 13.76 20.7299C13.76 21.0289 13.76 21.3279 13.7 21.6268L13.64 21.866L42.2 21.9258L42.14 21.6866C42.08 21.3877 42.02 21.0289 42.02 20.7299C42.02 17.7402 44.48 15.2887 47.48 15.2887C50.48 15.2887 52.94 17.7402 52.94 20.7299C52.94 21.1485 52.88 21.5073 52.82 21.9258L52.76 22.2846L53.12 22.165C54.62 21.7464 56.42 21.1485 56.54 20.5506C56.66 20.0124 56.48 19.6537 56.36 19.5341C56.66 18.9959 57.2 16.4248 57.14 14.2124ZM2.77999 9.84747C2.89999 8.83097 3.13999 7.87427 3.43999 7.03716C4.03999 7.15675 5.59999 7.5753 6.19999 8.29283C6.19999 8.29283 5.17999 9.90726 2.77999 9.84747ZM7.09999 6.37943C7.09999 5.72169 8.29999 2.85159 8.71999 2.55262C9.01999 2.43303 12.32 2.07427 16.82 1.89489L17.42 7.51551C9.49999 6.73819 7.51999 6.43922 7.09999 6.37943ZM40.34 9.5485C40.4 9.36912 40.46 9.12994 40.46 8.89077C40.46 8.11345 39.98 7.51551 39.44 7.51551C38.9 7.51551 38.9 8.11345 38.9 8.89077C38.9 9.07015 38.9 9.24953 38.9 9.42891C33.38 8.95056 25.46 8.29283 18.92 7.6351L18.26 1.8351C18.86 1.8351 19.52 1.8351 20.12 1.8351C23.36 1.8351 26.12 1.95468 28.4 2.25365C34.64 3.15056 42.5 8.35262 44.78 9.90726C43.88 9.84747 42.32 9.72788 40.34 9.5485ZM48.8 9.78767C51.92 10.8042 56.36 12.6578 56.66 14.0928C53.24 14.332 49.76 10.864 48.8 9.78767Z" fill="#999797"/>
</svg>
