<svg width="57" height="18" viewBox="0 0 57 18" fill="none" xmlns="http://www.w3.org/2000/svg">
<path d="M45.4924 17.7596C47.5323 17.7596 49.1924 16.0754 49.1924 14.0057C49.1924 11.9361 47.5323 10.2518 45.4924 10.2518C43.4524 10.2518 41.7924 11.9361 41.7924 14.0057C41.7924 16.0754 43.4524 17.7596 45.4924 17.7596ZM45.4924 11.5027C46.8525 11.5027 47.9588 12.6251 47.9588 14.0051C47.9588 15.385 46.8525 16.5074 45.4924 16.5074C44.1322 16.5074 43.0253 15.385 43.0253 14.0051C43.0253 12.6251 44.1322 11.5027 45.4924 11.5027Z" fill="#999797"/>
<path d="M11.9058 17.7596C13.9457 17.7596 15.6058 16.0754 15.6058 14.0057C15.6058 11.9361 13.9457 10.2518 11.9058 10.2518C9.86585 10.2518 8.2058 11.9361 8.2058 14.0057C8.2058 16.0754 9.86585 17.7596 11.9058 17.7596ZM11.9058 11.5027C13.266 11.5027 14.3722 12.6251 14.3722 14.0051C14.3722 15.385 13.266 16.5074 11.9058 16.5074C10.5456 16.5074 9.43871 15.385 9.43871 14.0051C9.43871 12.6251 10.5456 11.5027 11.9058 11.5027Z" fill="#999797"/>
<path d="M0.578407 8.95877C0.681095 8.12464 1.25188 5.99874 1.25188 5.99874C1.41127 5.55899 1.31866 4.92813 2.33674 4.77217C3.84496 4.54079 7.09513 4.20394 7.09513 4.20394C7.09513 4.20394 11.9052 2.07676 14.228 1.28419C16.5508 0.491609 20.1065 0.157959 24.4441 0.157959C28.7816 0.157959 30.1588 0.428969 33.0568 1.05472C35.9554 1.68047 43.2218 5.56986 43.2218 5.56986C44.7326 5.56986 48.551 6.2934 51.2386 6.79004C56.8298 7.82359 56.85 10.7945 56.85 11.7641C56.85 12.7344 56.8525 14.5669 55.9428 14.8526C55.4174 15.0181 53.0511 15.1607 50.2665 15.2687C50.3705 14.8647 50.4259 14.4416 50.4259 14.0051C50.4259 11.2451 48.2127 8.99967 45.4924 8.99967C42.772 8.99967 40.5588 11.2451 40.5588 14.0051C40.5588 14.5209 40.6363 15.0175 40.7793 15.486C40.7075 15.486 40.637 15.486 40.5695 15.486C37.0037 15.486 19.6857 15.2374 16.6869 15.2355C16.7852 14.8417 16.8381 14.4288 16.8381 14.0044C16.8381 11.2445 14.6249 8.99903 11.9052 8.99903C9.18483 8.99903 6.97165 11.2445 6.97165 14.0044C6.97165 14.2371 6.98866 14.4665 7.0189 14.6903C5.29333 14.6615 3.40836 14.333 2.42809 14.0044C1.38039 13.6529 0.671646 12.3259 0.267185 11.4043C-0.0912857 10.5855 0.475716 9.79353 0.578407 8.95877ZM14.3716 4.12085C14.5877 4.68396 14.7213 5.27839 16.273 5.28862C18.0307 5.30013 24.5789 5.44522 27.3112 5.47654C30.2432 5.50977 39.583 6.13297 39.583 6.13297C37.6709 4.45961 34.5726 2.50437 31.4427 1.81598C28.0735 1.07518 26.4475 1.18384 24.6287 1.18384C22.1824 1.18384 17.7421 1.65938 15.7696 2.29536C13.7397 2.94988 14.1555 3.55773 14.3716 4.12085Z" fill="#999797"/>
</svg>
