<svg width="56" height="25" viewBox="0 0 56 25" fill="none" xmlns="http://www.w3.org/2000/svg">
<path d="M44.5785 15.8835C42.3377 15.8835 40.5194 17.7067 40.5194 19.9601C40.5194 22.2166 42.3377 24.0398 44.5785 24.0398C46.8192 24.0398 48.6388 22.2166 48.6388 19.9601C48.6388 17.7074 46.8192 15.8835 44.5785 15.8835ZM44.5785 22.1734C43.365 22.1734 42.3795 21.1851 42.3795 19.962C42.3795 18.7408 43.365 17.7525 44.5785 17.7525C45.7919 17.7525 46.7774 18.7408 46.7774 19.962C46.7774 21.1851 45.7919 22.1734 44.5785 22.1734Z" fill="#999797"/>
<path d="M10.4665 15.8835C8.22577 15.8835 6.40747 17.7067 6.40747 19.9601C6.40747 22.2166 8.22577 24.0398 10.4665 24.0398C12.7072 24.0398 14.5268 22.2166 14.5268 19.9601C14.5268 17.7074 12.7072 15.8835 10.4665 15.8835ZM10.4665 22.1734C9.25367 22.1734 8.26757 21.1851 8.26757 19.962C8.26757 18.7408 9.25367 17.7525 10.4665 17.7525C11.6806 17.7525 12.6654 18.7408 12.6654 19.962C12.6654 21.1851 11.68 22.1734 10.4665 22.1734Z" fill="#999797"/>
<path d="M54.9936 13.3973C54.834 12.4415 53.9499 10.4058 49.4912 8.86831L43.2548 7.1234C43.2548 7.1234 36.5782 1.3064 30.7762 0.640762H6.55124C6.55124 0.640762 1.44974 0.407217 0.244504 9.99785C0.244504 9.99785 -0.644063 17.5566 1.4339 19.2703C1.76514 19.7158 2.2471 20.0028 2.7905 20.0028H5.78237C5.77667 19.9073 5.7678 19.8112 5.7678 19.7145C5.7678 17.0984 7.8787 14.9774 10.483 14.9774C13.0872 14.9774 15.1981 17.0984 15.1981 19.7145C15.1981 19.8112 15.1893 19.9073 15.1836 20.0028H39.8943C39.8886 19.9073 39.8804 19.8112 39.8804 19.7145C39.8804 17.0984 41.9913 14.9774 44.5949 14.9774C47.1986 14.9774 49.3095 17.0984 49.3095 19.7145C49.3095 19.8112 49.3006 19.9073 49.2955 20.0028H53.5591V19.9633C54.2799 19.8023 54.8499 19.143 54.993 18.2999H55.0285V13.3973H54.9936ZM27.4512 3.00803L26.7337 8.09767L15.3527 7.31049L15.9987 2.72931L27.4512 3.00803ZM6.62217 6.70722C5.34664 6.45776 5.4885 5.37785 5.4885 5.37785C6.05597 2.30294 8.74764 2.55304 8.74764 2.55304L14.7909 2.70004L14.1525 7.2284L6.62217 6.70722ZM39.0754 8.95104L27.9332 8.18103L28.6584 3.03794L29.2252 3.05131C32.839 2.96858 37.8702 5.79404 39.6416 7.45494C41.4131 9.11585 39.0754 8.95104 39.0754 8.95104Z" fill="#999797"/>
</svg>
