<svg width="59" height="19" viewBox="0 0 59 19" fill="none" xmlns="http://www.w3.org/2000/svg">
<path fill-rule="evenodd" clip-rule="evenodd" d="M5.26609 15.9535C4.3884 15.8792 3.4035 15.8117 2.58609 15.697C2.12452 15.6611 1.67848 15.5128 1.28629 15.265C0.616295 14.6642 0.723495 12.808 0.736893 11.89C0.736893 11.6537 1.31979 11.6537 1.33319 11.4107C1.42029 9.94599 1.5208 8.71074 1.68159 7.16499C1.75098 6.82018 1.92048 6.50392 2.16861 6.25634C2.41673 6.00877 2.73228 5.84106 3.07519 5.7745C5.42019 5.03875 11.0482 4.35024 13.7148 4.24225L14.559 4.20849L15.43 3.99249C15.9794 4.08024 15.9258 3.99249 16.0531 4.55949C16.1804 5.12649 16.4216 5.70699 17.0849 5.73399C19.3897 5.84199 21.7012 5.869 23.9122 5.94324C24.1467 5.94324 24.4348 5.81499 24.4281 5.54499V4.5325C24.4253 4.50514 24.4282 4.47749 24.4367 4.45135C24.4452 4.42521 24.4591 4.40117 24.4774 4.38079C24.4957 4.36041 24.5181 4.34415 24.5431 4.33308C24.5681 4.322 24.5951 4.31635 24.6224 4.3165L25.3929 4.24225C25.5068 4.24225 25.5939 4.34349 25.6207 4.46499L25.7748 5.34924C25.8887 5.94324 25.9892 6.11874 26.5855 6.14574L36.1464 6.55074C36.2603 6.55074 35.9655 6.01074 35.9387 5.56524C35.8985 4.80924 38.0224 4.67424 38.8733 4.72824C36.8896 3.33981 34.7889 2.12918 32.5954 1.11025C32.3207 0.975246 32.1532 0.968494 32.3341 0.678244L32.515 0.394746C32.649 0.185496 32.8165 0.205745 33.0309 0.306995C36.1731 1.72292 39.2412 3.29999 42.2233 5.03199C46.4001 5.51147 50.5409 6.26913 54.6183 7.29999C55.1048 7.38363 55.5645 7.58275 55.9595 7.88088C56.3544 8.17902 56.6733 8.5676 56.8896 9.01449C57.2104 9.70587 57.4901 10.4159 57.7271 11.1407C58.0487 11.1407 58.0621 11.269 58.1626 11.458C58.2406 11.8328 58.2654 12.2169 58.2363 12.5987C58.2363 12.997 58.1961 13.6045 58.1626 13.996C58.0889 14.8127 57.9549 15.2717 57.5395 15.5822C57.2581 15.7678 56.931 15.8706 56.5948 15.8792L55.3352 15.9197C54.5044 15.805 54.357 15.9197 54.4441 14.7992C54.4441 14.5495 54.4441 14.2997 54.4441 14.0365C54.4441 12.5309 53.8504 11.087 52.7937 10.0224C51.737 8.95783 50.3038 8.35974 48.8094 8.35974C47.315 8.35974 45.8818 8.95783 44.8251 10.0224C43.7684 11.087 43.1747 12.5309 43.1747 14.0365C43.1728 14.4656 43.2019 14.8942 43.2618 15.319C43.4829 16.831 43.2618 16.5745 42.096 16.5745H18.3445C17.5673 16.4125 17.2859 16.4192 17.4132 15.3257C17.4456 14.9013 17.4546 14.4754 17.44 14.05C17.44 12.5444 16.8463 11.1005 15.7896 10.0359C14.7329 8.97133 13.2997 8.37324 11.8053 8.37324C10.3109 8.37324 8.87767 8.97133 7.82096 10.0359C6.76425 11.1005 6.17059 12.5444 6.17059 14.05C6.17059 14.2592 6.17059 14.4752 6.17059 14.6777C6.17059 15.7577 6.117 16.0277 5.2393 15.9535H5.26609ZM11.8388 9.68274C10.9814 9.68274 10.1433 9.93888 9.43045 10.4188C8.71759 10.8986 8.16197 11.5807 7.83387 12.3787C7.50577 13.1767 7.41993 14.0548 7.58719 14.902C7.75445 15.7492 8.16731 16.5273 8.77356 17.1381C9.3798 17.7489 10.1522 18.1648 10.9931 18.3333C11.834 18.5018 12.7056 18.4154 13.4977 18.0848C14.2898 17.7543 14.9668 17.1945 15.4431 16.4763C15.9195 15.7581 16.1737 14.9138 16.1737 14.05C16.1737 12.8917 15.717 11.7809 14.904 10.9619C14.0911 10.1429 12.9885 9.68274 11.8388 9.68274ZM48.8362 9.68274C47.9788 9.68274 47.1407 9.93888 46.4279 10.4188C45.715 10.8986 45.1594 11.5807 44.8313 12.3787C44.5032 13.1767 44.4173 14.0548 44.5846 14.902C44.7519 15.7492 45.1647 16.5273 45.771 17.1381C46.3772 17.7489 47.1496 18.1648 47.9905 18.3333C48.8314 18.5018 49.703 18.4154 50.4951 18.0848C51.2872 17.7543 51.9642 17.1945 52.4405 16.4763C52.9169 15.7581 53.1711 14.9138 53.1711 14.05C53.1711 12.8917 52.7144 11.7809 51.9014 10.9619C51.0885 10.1429 49.9859 9.68274 48.8362 9.68274Z" fill="#999797"/>
</svg>
