<svg width="55" height="25" viewBox="0 0 55 25" fill="none" xmlns="http://www.w3.org/2000/svg">
<path d="M1.83499 19.2179H4.66699C5.19799 19.2179 5.61099 18.8089 5.61099 18.2832H4.96199C4.96199 18.4 4.84399 18.5169 4.72599 18.5169H1.48099L1.83499 19.2179Z" fill="#999797"/>
<path d="M0.831989 14.9535H3.01499V14.7782L3.84099 14.5446H2.18899C2.18899 14.5446 1.83499 14.603 1.65799 14.0188C1.42199 13.3763 1.12699 11.6822 1.18599 10.5723C1.18599 10.5723 4.60799 3.44557 6.31899 1.75151C6.31899 1.75151 6.20099 0.583199 6.90899 0.29112C6.90899 0.29112 26.438 -0.293038 30.686 0.29112L33.164 0.816862C33.164 0.816862 33.577 0.99211 33.577 1.16736L33.282 1.51785C33.282 1.51785 33.105 1.86835 33.577 2.62775C34.049 3.32874 35.878 6.07429 35.878 6.07429C35.878 6.07429 36.291 6.65845 37.117 6.4832C37.117 6.4832 37.353 6.54161 37.589 6.83369C37.589 6.83369 37.825 7.2426 38.887 7.30102C39.949 7.35943 46.321 7.5931 49.861 8.52775C49.861 8.52775 51.69 8.76142 51.867 9.40399C52.044 10.0466 52.221 11.5654 52.221 11.5654C52.221 11.5654 52.162 11.799 52.103 12.1495C52.162 12.1495 52.28 12.2079 52.28 12.3248V14.4278H54.168C54.404 14.4278 54.522 14.603 54.522 14.7782V15.9466C54.522 16.1802 54.345 16.2971 54.168 16.2971H51.395C51.336 16.2971 51.336 16.2971 51.277 16.2971C51.159 16.5307 50.805 17.1733 50.51 16.706L50.333 16.4723C49.448 13.9604 47.324 12.1495 44.787 12.1495C41.837 12.1495 39.418 14.5446 38.946 17.7575L38.887 18.1079V17.9911C38.887 18.2248 38.71 18.3416 38.533 18.3416H38.356V22.1386H37.943V18.3416H18.945H18.709C18.473 18.3416 18.355 18.1664 18.355 17.9911L18.296 17.8159C17.765 15.1287 15.405 13.0842 12.514 13.0842C10.272 13.0842 8.38399 14.2525 7.32199 16.0634L6.84999 17.2901C6.84999 17.2901 6.61399 18.5169 5.19799 17.8159C5.02098 17.7575 4.84399 17.6406 4.66699 17.5238V22.1971H4.25399V17.1733C4.19499 17.1149 4.19499 17.1149 4.13599 17.0565C4.07699 16.998 4.78499 16.8812 4.78499 16.8812H0.949989C0.713989 16.8812 0.595989 16.706 0.595989 16.5307V15.4208C0.477989 15.1287 0.595989 14.9535 0.831989 14.9535ZM2.24799 11.9159H1.53999C1.53999 11.9159 1.71699 13.4347 1.83499 13.6099H2.48399L2.24799 11.9159ZM51.808 14.4278V14.3693V14.4278ZM51.749 10.8644V9.75448H51.218C51.159 9.75448 51.454 10.7476 51.749 10.8644ZM47.796 10.9812H49.743V10.3386H47.796V10.9812ZM35.111 8.58617C35.111 8.29409 34.757 8.11884 34.58 8.06043C34.403 7.94359 34.167 7.41785 34.167 7.41785L33.813 7.65152L33.872 8.00201C33.341 8.00201 33.046 8.58617 33.046 8.58617H35.111ZM30.627 7.18419H32.397L32.928 5.78221L30.686 2.51092V7.18419H30.627ZM30.273 6.83369V2.62775C30.273 2.39409 30.096 2.27726 29.919 2.27726H22.426L23.075 2.51092V6.89211C23.075 7.12577 23.252 7.2426 23.429 7.2426H29.86C30.096 7.18419 30.273 7.00894 30.273 6.83369ZM22.662 9.40399C22.662 9.46241 22.721 9.52082 22.78 9.52082H24.314C24.373 9.52082 24.432 9.46241 24.432 9.40399V9.28716H22.603V9.40399H22.662ZM22.308 8.81983V9.11191C22.308 9.17033 22.367 9.22874 22.426 9.22874H24.55C24.609 9.22874 24.668 9.17033 24.668 9.11191L24.432 8.76141C24.432 8.703 24.314 8.64458 24.255 8.64458H22.662H22.426H21.895L22.308 8.81983ZM9.97699 7.18419H20.361C20.597 7.18419 20.715 7.00894 20.715 6.83369V2.62775C20.715 2.39409 20.538 2.27726 20.361 2.27726H12.75H12.042H10.862L11.511 2.51092C11.452 2.56934 11.393 2.68617 11.334 2.74458L9.56399 6.83369C9.62299 7.00894 9.74099 7.18419 9.97699 7.18419ZM8.26599 2.74458H7.73499L7.32199 3.50399H7.79399L8.26599 2.74458ZM7.61699 3.79607H7.08599L6.67299 4.55548H7.14499L7.61699 3.79607ZM6.49599 5.54854L6.96799 4.78914H6.43699L6.02399 5.54854H6.49599ZM4.37199 10.806H6.25999V10.1634H4.31299V10.806H4.37199Z" fill="#999797"/>
<path d="M32.692 8.11887C32.515 8.11887 32.397 7.59313 32.397 6.89214C32.397 6.19115 32.515 5.66541 32.692 5.66541C32.692 5.66541 33.282 5.84065 33.931 6.42481C34.58 7.00897 34.344 7.24263 33.931 7.53471C33.518 7.88521 32.692 8.11887 32.692 8.11887Z" fill="#999797"/>
<path d="M44.846 17.2902C45.79 17.2902 46.557 18.0496 46.557 18.9842C46.557 19.9189 45.79 20.6783 44.846 20.6783C43.902 20.6783 43.135 19.9189 43.135 18.9842C43.135 18.0496 43.902 17.2902 44.846 17.2902ZM44.787 19.9773C45.377 19.9773 45.849 19.51 45.849 18.9258C45.849 18.5753 45.731 18.3416 45.495 18.108C45.672 18.2832 45.731 18.5169 45.731 18.809C45.731 18.9258 45.731 19.0426 45.672 19.1011C45.672 19.0426 45.672 19.0426 45.672 18.9842C45.672 18.5169 45.318 18.1664 44.846 18.1664C44.374 18.1664 44.02 18.5169 44.02 18.9842C44.02 19.4515 44.374 19.802 44.846 19.802C44.905 19.802 44.964 19.802 44.964 19.802C44.846 19.8605 44.787 19.8605 44.669 19.8605C44.433 19.8605 44.197 19.7436 43.961 19.6268C44.197 19.802 44.492 19.9773 44.787 19.9773Z" fill="#999797"/>
<path d="M12.396 17.2902C13.34 17.2902 14.107 18.0496 14.107 18.9842C14.107 19.9189 13.34 20.6783 12.396 20.6783C11.452 20.6783 10.685 19.9189 10.685 18.9842C10.626 18.0496 11.452 17.2902 12.396 17.2902ZM12.337 19.9773C12.927 19.9773 13.399 19.51 13.399 18.9258C13.399 18.5753 13.222 18.3416 13.045 18.108C13.222 18.2832 13.281 18.5169 13.281 18.809C13.281 18.9258 13.281 19.0426 13.222 19.1011C13.222 19.0426 13.222 19.0426 13.222 18.9842C13.222 18.5169 12.868 18.1664 12.396 18.1664C11.924 18.1664 11.57 18.5169 11.57 18.9842C11.57 19.4515 11.924 19.802 12.396 19.802C12.455 19.802 12.514 19.802 12.514 19.802C12.396 19.8605 12.337 19.8605 12.219 19.8605C11.983 19.8605 11.747 19.7436 11.511 19.6268C11.688 19.802 11.983 19.9773 12.337 19.9773Z" fill="#999797"/>
<path d="M44.846 13.61C47.855 13.61 50.274 16.005 50.274 18.9842C50.274 21.9634 47.855 24.3585 44.846 24.3585C41.837 24.3585 39.418 21.9634 39.418 18.9842C39.418 16.005 41.837 13.61 44.846 13.61ZM43.253 21.9634C42.486 21.3793 41.955 20.4446 41.955 19.4516C42.191 20.8535 43.371 21.905 44.846 21.905C46.498 21.905 47.796 20.6199 47.796 18.9842C47.796 17.3486 46.498 16.0634 44.846 16.0634C44.669 16.0634 44.492 16.0634 44.315 16.1219C44.61 16.005 44.964 16.005 45.318 16.005C45.908 16.005 46.498 16.1803 46.97 16.4139C46.38 16.005 45.672 15.713 44.905 15.713C43.017 15.713 41.542 17.2318 41.542 19.0427C41.542 20.2694 42.25 21.3793 43.253 21.9634Z" fill="#999797"/>
<path d="M12.396 13.61C15.405 13.61 17.824 16.005 17.824 18.9842C17.824 21.9634 15.405 24.3585 12.396 24.3585C9.38697 24.3585 6.96797 21.9634 6.96797 18.9842C6.90897 16.005 9.38697 13.61 12.396 13.61ZM10.803 21.9634C10.036 21.3793 9.50497 20.4446 9.50497 19.4516C9.74097 20.8535 10.921 21.905 12.396 21.905C14.048 21.905 15.346 20.6199 15.346 18.9842C15.346 17.3486 14.048 16.0634 12.396 16.0634C12.219 16.0634 12.042 16.0634 11.865 16.1219C12.16 16.005 12.514 16.005 12.868 16.005C13.458 16.005 14.048 16.1803 14.52 16.4139C13.93 16.005 13.222 15.713 12.455 15.713C10.567 15.713 9.09197 17.2318 9.09197 19.0427C9.09197 20.2694 9.74097 21.3793 10.803 21.9634Z" fill="#999797"/>
<path d="M44.5726 21.3007C44.5595 21.1076 44.7071 20.9405 44.9022 20.9276C45.0972 20.9147 45.266 21.0608 45.279 21.2539C45.2921 21.4471 45.1445 21.6141 44.9494 21.627C44.7543 21.64 44.5856 21.4939 44.5726 21.3007Z" fill="#999797"/>
<path d="M43.3144 21.1391C43.1497 21.0349 43.1015 20.8181 43.2068 20.655C43.3121 20.492 43.531 20.4443 43.6957 20.5485C43.8604 20.6528 43.9086 20.8695 43.8033 21.0326C43.698 21.1957 43.4791 21.2434 43.3144 21.1391Z" fill="#999797"/>
<path d="M42.2736 19.8311C42.2035 19.6504 42.2947 19.4477 42.4772 19.3783C42.6597 19.3089 42.8645 19.3991 42.9346 19.5798C43.0046 19.7605 42.9135 19.9632 42.731 20.0326C42.5485 20.102 42.3437 20.0118 42.2736 19.8311Z" fill="#999797"/>
<path d="M42.5094 18.6193C42.3209 18.5679 42.2101 18.375 42.262 18.1884C42.3138 18.0017 42.5087 17.892 42.6972 17.9434C42.8857 17.9947 42.9965 18.1877 42.9446 18.3743C42.8927 18.561 42.6979 18.6706 42.5094 18.6193Z" fill="#999797"/>
<path d="M43.2 17.3504C43.0791 17.1982 43.1057 16.9779 43.2594 16.8582C43.413 16.7385 43.6356 16.7649 43.7565 16.917C43.8773 17.0692 43.8507 17.2895 43.6971 17.4092C43.5434 17.5288 43.3208 17.5025 43.2 17.3504Z" fill="#999797"/>
<path d="M44.5176 16.6753C44.5115 16.4818 44.6649 16.32 44.8603 16.3139C45.0557 16.3077 45.2191 16.4596 45.2253 16.6531C45.2315 16.8466 45.0781 17.0084 44.8827 17.0145C44.6872 17.0206 44.5238 16.8687 44.5176 16.6753Z" fill="#999797"/>
<path d="M46.0126 17.3898C45.8516 17.28 45.811 17.0617 45.9219 16.9023C46.0328 16.7429 46.2532 16.7026 46.4142 16.8124C46.5752 16.9222 46.6159 17.1405 46.505 17.2999C46.3941 17.4593 46.1737 17.4996 46.0126 17.3898Z" fill="#999797"/>
<path d="M46.7597 18.4307C46.696 18.2477 46.7941 18.0482 46.9789 17.985C47.1637 17.9219 47.3652 18.019 47.429 18.202C47.4928 18.385 47.3947 18.5845 47.2099 18.6477C47.025 18.7108 46.8235 18.6137 46.7597 18.4307Z" fill="#999797"/>
<path d="M46.9238 20.078C46.7372 20.0201 46.6334 19.8234 46.692 19.6387C46.7505 19.454 46.9491 19.3512 47.1357 19.4091C47.3222 19.4671 47.426 19.6638 47.3675 19.8485C47.309 20.0332 47.1103 20.136 46.9238 20.078Z" fill="#999797"/>
<path d="M45.8379 21.1083C45.7223 20.9522 45.7565 20.7329 45.9142 20.6184C46.0719 20.504 46.2934 20.5378 46.4089 20.694C46.5245 20.8501 46.4904 21.0694 46.3327 21.1839C46.175 21.2983 45.9534 21.2645 45.8379 21.1083Z" fill="#999797"/>
<path d="M12.1106 21.3124C12.0975 21.1193 12.2451 20.9522 12.4402 20.9393C12.6352 20.9264 12.804 21.0725 12.817 21.2656C12.83 21.4588 12.6825 21.6258 12.4874 21.6387C12.2923 21.6517 12.1236 21.5056 12.1106 21.3124Z" fill="#999797"/>
<path d="M10.8634 21.1473C10.6987 21.043 10.6505 20.8263 10.7558 20.6632C10.8611 20.5001 11.08 20.4524 11.2447 20.5567C11.4095 20.661 11.4576 20.8777 11.3523 21.0408C11.247 21.2039 11.0281 21.2516 10.8634 21.1473Z" fill="#999797"/>
<path d="M9.81636 19.842C9.74633 19.6612 9.83752 19.4585 10.0201 19.3892C10.2026 19.3199 10.4073 19.4102 10.4774 19.5909C10.5474 19.7716 10.4562 19.9743 10.2737 20.0436C10.0911 20.113 9.88639 20.0227 9.81636 19.842Z" fill="#999797"/>
<path d="M10.0578 18.6225C9.86934 18.5711 9.75857 18.3782 9.81044 18.1915C9.86231 18.0049 10.0572 17.8952 10.2457 17.9466C10.4342 17.9979 10.545 18.1909 10.4931 18.3775C10.4412 18.5641 10.2464 18.6738 10.0578 18.6225Z" fill="#999797"/>
<path d="M10.7082 17.3151C10.5874 17.1629 10.614 16.9426 10.7676 16.8229C10.9213 16.7033 11.1439 16.7296 11.2647 16.8817C11.3856 17.0339 11.359 17.2542 11.2053 17.3739C11.0517 17.4936 10.8291 17.4672 10.7082 17.3151Z" fill="#999797"/>
<path d="M12.0552 16.6878C12.0491 16.4944 12.2025 16.3326 12.3979 16.3264C12.5933 16.3203 12.7567 16.4722 12.7629 16.6657C12.7691 16.8591 12.6157 17.021 12.4203 17.0271C12.2248 17.0332 12.0614 16.8813 12.0552 16.6878Z" fill="#999797"/>
<path d="M13.5629 17.397C13.4019 17.2872 13.3614 17.0689 13.4723 16.9095C13.5832 16.7501 13.8037 16.71 13.9646 16.8198C14.1256 16.9296 14.1662 17.1479 14.0553 17.3073C13.9443 17.4667 13.7239 17.5068 13.5629 17.397Z" fill="#999797"/>
<path d="M14.2795 18.3873C14.2158 18.2043 14.3139 18.0048 14.4988 17.9417C14.6836 17.8786 14.8851 17.9758 14.9489 18.1588C15.0126 18.3418 14.9144 18.5413 14.7296 18.6044C14.5447 18.6675 14.3432 18.5703 14.2795 18.3873Z" fill="#999797"/>
<path d="M14.4747 20.0811C14.2881 20.0232 14.1842 19.8266 14.2427 19.6419C14.3011 19.4571 14.4997 19.3543 14.6863 19.4121C14.8728 19.47 14.9767 19.6666 14.9183 19.8513C14.8599 20.0361 14.6613 20.1389 14.4747 20.0811Z" fill="#999797"/>
<path d="M13.3846 21.1163C13.2691 20.9602 13.3033 20.7409 13.461 20.6265C13.6187 20.5121 13.8402 20.546 13.9557 20.7021C14.0713 20.8583 14.037 21.0776 13.8793 21.192C13.7216 21.3064 13.5001 21.2725 13.3846 21.1163Z" fill="#999797"/>
</svg>
