<svg width="52" height="21" viewBox="0 0 52 21" fill="none" xmlns="http://www.w3.org/2000/svg">
<path d="M0.404002 8.7787C0.620006 7.45104 1.37601 6.34466 2.456 5.79147L10.772 1.2553C11.42 0.923381 12.284 0.702104 12.932 0.591465C18.872 0.259551 24.812 0.259551 30.104 0.591465C30.86 0.702104 31.616 0.923381 32.156 1.36593L37.772 5.23827C39.068 6.23402 43.712 5.12764 49.868 8.00423C50.84 8.44678 51.488 9.33189 51.596 10.3276C51.812 11.5447 51.92 12.8723 51.92 14.4213C51.92 16.0808 50.624 17.2978 49.112 17.2978H48.896C49.004 16.9659 49.004 16.5234 49.004 16.1915C49.004 12.3191 45.98 9.22125 42.2 9.22125C38.42 9.22125 35.396 12.3191 35.396 16.1915C35.396 16.5234 35.396 16.9659 35.504 17.2978H17.684C17.792 16.9659 17.792 16.5234 17.792 16.1915C17.792 12.3191 14.768 9.22125 10.988 9.22125C7.208 9.22125 4.184 12.3191 4.184 16.1915C4.184 16.3021 4.184 16.5234 4.184 16.634L1.808 15.5276C0.836001 15.0851 0.188003 14.2 0.188003 13.0936C0.0800047 11.7659 0.188003 10.217 0.404002 8.7787ZM26.108 6.67657L32.048 6.89785C32.156 6.89785 32.264 6.89785 32.372 6.89785L35.18 6.23402L30.86 3.24678C30.536 3.02551 30.212 2.91487 29.888 2.91487C28.7 2.80423 27.512 2.80423 26.216 2.69359V6.67657H26.108ZM23.948 6.67657V2.58296C22.328 2.58296 20.6 2.58296 18.872 2.58296L16.712 6.4553L23.948 6.67657ZM14.336 6.34466L16.388 2.69359C15.2 2.69359 14.12 2.80423 12.932 2.80423L11.096 6.23402L14.336 6.34466Z" fill="#05ACE2"/>
<path d="M42.2 20.949C44.792 20.949 46.844 18.8469 46.844 16.1915C46.844 13.5362 44.792 11.4341 42.2 11.4341C39.608 11.4341 37.556 13.6468 37.556 16.1915C37.448 18.8469 39.608 20.949 42.2 20.949Z" fill="#05ACE2"/>
<path d="M6.236 16.1915C6.236 18.8469 8.288 20.949 10.88 20.949C13.472 20.949 15.524 18.8469 15.524 16.1915C15.524 13.5362 13.364 11.4341 10.88 11.4341C8.288 11.4341 6.236 13.5362 6.236 16.1915Z" fill="#05ACE2"/>
</svg>
