<svg width="57" height="18" viewBox="0 0 57 18" fill="none" xmlns="http://www.w3.org/2000/svg">
<path fill-rule="evenodd" clip-rule="evenodd" d="M37.6295 1.70007e-05H24.9878C24.3695 1.70007e-05 23.8646 0.492642 23.8646 1.09437C23.8646 5.58958 23.8646 10.0848 23.8646 14.5807H41.9945C42.1511 12.6342 43.8225 11.1022 45.8608 11.1022C47.899 11.1022 49.5697 12.6342 49.7264 14.5807H56.3172V13.8457H57L56.9711 11.8277H56.3172V8.31507C56.3172 6.84924 52.1472 5.6498 50.6435 5.6498H44.8921L37.6295 0L37.6295 1.70007e-05ZM30.0178 1.05889V5.09493H24.959L24.9878 1.05889H30.0178H30.0178ZM31.0345 5.09493V1.05889H37.2489L42.4369 5.09493H31.0345Z" fill="#999797"/>
<path fill-rule="evenodd" clip-rule="evenodd" d="M22.9199 4.9386H1.14988L1.11278 10.0161L0.00400925 10.2678V12.1051L8.50528 14.518H10.8382C11.0278 12.6037 12.6834 11.1071 14.6976 11.1071C16.7118 11.1071 18.3667 12.6037 18.557 14.518H22.92V4.9386L22.9199 4.9386ZM19.4191 8.35284H6.85237V9.93781H19.4191V8.35284ZM19.4191 6.12063H6.85237V7.70559H19.4191V6.12063Z" fill="#999797"/>
<path fill-rule="evenodd" clip-rule="evenodd" d="M45.8592 12.1616C44.317 12.1616 43.0674 13.3791 43.0674 14.8811C43.0674 16.3831 44.317 17.6006 45.8592 17.6006C47.4008 17.6006 48.6504 16.3831 48.6504 14.8811C48.6504 13.3791 47.4008 12.1616 45.8592 12.1616Z" fill="#999797"/>
<path d="M14.6973 17.5998C13.1557 17.5998 11.906 16.3822 11.906 14.8802C11.906 13.3782 13.1557 12.1606 14.6973 12.1606C16.2388 12.1606 17.4885 13.3782 17.4885 14.8802C17.4885 16.3822 16.2388 17.5998 14.6973 17.5998Z" fill="#999797"/>
</svg>
