<svg width="58" height="21" viewBox="0 0 58 21" fill="none" xmlns="http://www.w3.org/2000/svg">
<path d="M46.7396 12.891C44.6408 12.891 42.932 14.6054 42.932 16.7139C42.932 18.8223 44.6408 20.5386 46.7396 20.5386C48.8408 20.5386 50.5496 18.8223 50.5496 16.7139C50.5496 14.6054 48.8408 12.891 46.7396 12.891Z" fill="#999797"/>
<path d="M11.6858 12.891C9.5858 12.891 7.8764 14.6054 7.8764 16.7139C7.8764 18.8223 9.5858 20.5386 11.6858 20.5386C13.7858 20.5386 15.4946 18.8223 15.4946 16.7139C15.4946 14.6054 13.7858 12.891 11.6858 12.891Z" fill="#999797"/>
<path d="M57.1376 12.891C56.9384 12.2241 56.5166 11.3295 55.6502 10.7681C51.665 8.49639 46.4126 7.90964 45.755 7.8494C45.0956 7.78796 44.0402 7.64036 44.0402 7.64036C44.0402 7.64036 38.5256 3.34398 33.2948 1.72169C28.0646 0.098799 17.2976 1.25241 16.3694 1.33976C14.1698 1.53615 8.18661 5.98434 8.18661 5.98434C8.18661 5.98434 1.65681 7.16988 1.15401 7.61868C0.652408 8.06687 0.484408 10.2584 0.501208 12.2964C0.518008 14.3349 0.879808 17.1331 0.879808 17.1331C1.73061 17.1849 6.31041 17.4602 6.31041 17.4602C6.27681 17.2157 6.25341 16.9681 6.25341 16.7145C6.25341 13.7024 8.68521 11.2596 11.6858 11.2596C14.6864 11.2596 17.1182 13.7825 17.1182 16.794C17.1182 17.3584 17.0336 17.8886 16.8752 18.491H41.5532C41.3942 17.8886 41.3096 17.3566 41.3096 16.794C41.3096 13.7825 43.7414 11.3 46.7426 11.3C49.7426 11.3 52.175 13.7223 52.175 16.7343C52.175 17.2108 52.109 17.659 51.9938 18.1C53.0768 18.1464 57.0464 18.2934 57.353 18.0837C57.7076 17.8404 57.3374 13.5584 57.1376 12.891ZM16.238 7.33012C16.238 7.33012 16.1756 4.00603 17.0678 3.18615C17.9612 2.36687 23.771 2.57711 24.0506 2.55603C24.3308 2.53555 24.5936 2.84398 24.6152 3.13615C24.6362 3.42892 24.941 7.83193 24.941 7.83193L16.238 7.33012ZM37.2974 8.23675L27.1694 7.98374C27.1694 7.98374 26.1956 3.09398 26.1548 2.89639C26.114 2.6982 26.2964 2.55723 26.606 2.55663C26.9156 2.55603 31.046 2.93133 33.1616 3.68976C36.0398 4.72109 38.5562 6.64338 38.5562 6.64338L37.2974 8.23675Z" fill="#999797"/>
</svg>
